<svg height="1024" node-id="1" sillyvg="true" template-height="1024" template-width="1024" version="1.1" viewBox="0 0 1024 1024" width="1024" xmlns="http://www.w3.org/2000/svg" xmlns:xlink="http://www.w3.org/1999/xlink"><defs node-id="99"><linearGradient gradientUnits="objectBoundingBox" id="paint0_linear_1515_111182" node-id="36" spreadMethod="pad" x1="506" x2="506" y1="635" y2="890"><stop offset="0" stop-color="#bddfff"/><stop offset="0.95892" stop-color="#ffffff" stop-opacity="0"/></linearGradient><linearGradient gradientUnits="objectBoundingBox" id="paint1_linear_1515_111182" node-id="39" spreadMethod="pad" x1="229.66" x2="229.66" y1="754.678" y2="615.257"><stop offset="0" stop-color="#5fb2ff"/><stop offset="0.7893" stop-color="#dff0ff"/></linearGradient><linearGradient gradientUnits="objectBoundingBox" id="paint2_linear_1515_111182" node-id="42" spreadMethod="pad" x1="229.661" x2="229.661" y1="630.738" y2="784.347"><stop offset="0" stop-color="#dff0ff"/><stop offset="0.818" stop-color="#a2d2ff"/></linearGradient><linearGradient gradientUnits="objectBoundingBox" id="paint3_linear_1515_111182" node-id="45" spreadMethod="pad" x1="883.842" x2="847.534" y1="720.042" y2="802.968"><stop offset="0.365159" stop-color="#c4e3ff"/><stop offset="1" stop-color="#5fb2ff"/></linearGradient><linearGradient gradientUnits="objectBoundingBox" id="paint4_linear_1515_111182" node-id="48" spreadMethod="pad" x1="602.631" x2="395.65" y1="278.657" y2="583.387"><stop offset="0" stop-color="#a4d3ff"/><stop offset="1" stop-color="#e3f1ff"/></linearGradient><linearGradient gradientUnits="objectBoundingBox" id="paint5_linear_1515_111182" node-id="51" spreadMethod="pad" x1="602.631" x2="420.241" y1="289.373" y2="623.113"><stop offset="0" stop-color="#d8ecff"/><stop offset="0.656831" stop-color="#a5d3ff"/></linearGradient><linearGradient gradientUnits="objectBoundingBox" id="paint6_linear_1515_111182" node-id="54" spreadMethod="pad" x1="582.705" x2="402.105" y1="336.349" y2="584.609"><stop offset="0" stop-color="#6cb8ff"/><stop offset="0.656831" stop-color="#e9f4ff"/></linearGradient><linearGradient gradientUnits="objectBoundingBox" id="paint7_linear_1515_111182" node-id="57" spreadMethod="pad" x1="582.705" x2="376.449" y1="327.608" y2="569.968"><stop offset="0" stop-color="#6cb8ff"/><stop offset="0.568288" stop-color="#8fc8ff"/></linearGradient><linearGradient gradientUnits="objectBoundingBox" id="paint8_linear_1515_111182" node-id="60" spreadMethod="pad" x1="449.166" x2="579.104" y1="403.715" y2="533.653"><stop offset="0" stop-color="#ffffff"/><stop offset="1" stop-color="#ffffff" stop-opacity="0.477764"/></linearGradient><linearGradient gradientUnits="objectBoundingBox" id="paint9_linear_1515_111182" node-id="63" spreadMethod="pad" x1="349.726" x2="349.726" y1="491.443" y2="512.849"><stop offset="0" stop-color="#ffcda5"/><stop offset="1" stop-color="#ffe8d1"/></linearGradient><linearGradient gradientUnits="objectBoundingBox" id="paint10_linear_1515_111182" node-id="66" spreadMethod="pad" x1="349.189" x2="377.041" y1="442.221" y2="494.151"><stop offset="0" stop-color="#fff2df"/><stop offset="1" stop-color="#fee0bc"/></linearGradient><linearGradient gradientUnits="objectBoundingBox" id="paint11_linear_1515_111182" node-id="69" spreadMethod="pad" x1="366.082" x2="317.991" y1="445.717" y2="481.576"><stop offset="0" stop-color="#9f4326"/><stop offset="1" stop-color="#574915"/></linearGradient><linearGradient gradientUnits="objectBoundingBox" id="paint12_linear_1515_111182" node-id="72" spreadMethod="pad" x1="375.521" x2="387.884" y1="470.62" y2="460.749"><stop offset="0" stop-color="#fee4c3"/><stop offset="1" stop-color="#ffd1ac"/></linearGradient><linearGradient gradientUnits="objectBoundingBox" id="paint13_linear_1515_111182" node-id="75" spreadMethod="pad" x1="301.653" x2="286.307" y1="606.841" y2="602.999"><stop offset="0" stop-color="#fee4c3"/><stop offset="1" stop-color="#ffd1ac"/></linearGradient><linearGradient gradientUnits="objectBoundingBox" id="paint14_linear_1515_111182" node-id="78" spreadMethod="pad" x1="342.885" x2="379.153" y1="611.307" y2="510.403"><stop offset="0.0403741" stop-color="#6688ff"/><stop offset="1" stop-color="#f094ff"/></linearGradient><linearGradient gradientUnits="objectBoundingBox" id="paint15_linear_1515_111182" node-id="81" spreadMethod="pad" x1="789.326" x2="770.395" y1="563.994" y2="550.631"><stop offset="0" stop-color="#6cb8ff"/><stop offset="0.656831" stop-color="#8fc8ff"/></linearGradient><linearGradient gradientUnits="objectBoundingBox" id="paint16_linear_1515_111182" node-id="84" spreadMethod="pad" x1="787.361" x2="778.949" y1="562.297" y2="552.535"><stop offset="0" stop-color="#b2daff"/><stop offset="1" stop-color="#88c5ff"/></linearGradient><linearGradient gradientUnits="objectBoundingBox" id="paint17_linear_1515_111182" node-id="87" spreadMethod="pad" x1="825.321" x2="776.79" y1="454.387" y2="521.715"><stop offset="0" stop-color="#b2daff"/><stop offset="1" stop-color="#88c5ff"/></linearGradient><linearGradient gradientUnits="objectBoundingBox" id="paint18_linear_1515_111182" node-id="90" spreadMethod="pad" x1="790.099" x2="774.112" y1="481.319" y2="520.892"><stop offset="0" stop-color="#b2daff"/><stop offset="1" stop-color="#88c5ff"/></linearGradient><linearGradient gradientUnits="objectBoundingBox" id="paint19_linear_1515_111182" node-id="93" spreadMethod="pad" x1="850.271" x2="814.616" y1="502.675" y2="509.66"><stop offset="0" stop-color="#b2daff"/><stop offset="1" stop-color="#88c5ff"/></linearGradient><clipPath id="clip0_1515_111182" node-id="96"><path d="M 0.00 0.00 L 1024.00 0.00 L 1024.00 1024.00 L 0.00 1024.00 Z" fill="#000000" fill-rule="nonzero" node-id="222" stroke="none" target-height="1024" target-width="1024" target-x="0" target-y="0"/></clipPath></defs><g clip-path="url(#clip0_1515_111182)" id="sillyvg_g_0" node-id="226"><path d="M 973.00 762.50 L 972.80 766.60 L 972.00 770.70 L 970.80 774.80 L 969.10 779.00 L 966.80 783.20 L 963.90 787.50 L 960.30 792.10 L 955.90 796.70 L 950.60 801.50 L 944.50 806.30 L 937.50 811.30 L 928.70 816.70 L 918.80 822.10 L 907.40 827.70 L 894.50 833.20 L 881.90 838.10 L 868.10 843.00 L 852.90 847.90 L 836.20 852.70 L 802.60 861.00 L 765.10 868.60 L 726.40 874.90 L 684.70 880.30 L 656.60 883.20 L 627.50 885.60 L 597.50 887.50 L 567.50 888.90 L 537.00 889.70 L 506.00 890.00 L 475.00 889.70 L 444.50 888.90 L 414.50 887.50 L 384.50 885.60 L 355.40 883.20 L 327.30 880.30 L 285.60 874.90 L 246.90 868.60 L 209.40 861.00 L 175.80 852.70 L 159.10 847.90 L 143.90 843.00 L 130.10 838.10 L 117.50 833.20 L 104.60 827.70 L 93.20 822.10 L 83.30 816.70 L 74.50 811.30 L 67.50 806.30 L 61.40 801.50 L 56.10 796.70 L 51.70 792.10 L 48.10 787.50 L 45.20 783.20 L 42.90 779.00 L 41.20 774.80 L 40.00 770.70 L 39.20 766.60 L 39.00 762.50 L 39.20 758.40 L 40.00 754.30 L 41.20 750.20 L 42.90 746.00 L 45.20 741.80 L 48.10 737.50 L 51.70 732.90 L 56.10 728.30 L 61.40 723.50 L 67.50 718.70 L 74.50 713.70 L 83.30 708.30 L 93.20 702.90 L 104.60 697.30 L 117.50 691.80 L 130.10 686.90 L 143.90 682.00 L 159.10 677.10 L 175.80 672.30 L 209.40 664.00 L 246.90 656.40 L 285.60 650.10 L 327.30 644.70 L 355.40 641.80 L 384.50 639.40 L 414.50 637.50 L 444.50 636.10 L 475.00 635.30 L 506.00 635.00 L 537.00 635.30 L 567.50 636.10 L 597.50 637.50 L 627.50 639.40 L 656.60 641.80 L 684.70 644.70 L 726.40 650.10 L 765.10 656.40 L 802.60 664.00 L 836.20 672.30 L 852.90 677.10 L 868.10 682.00 L 881.90 686.90 L 894.50 691.80 L 907.40 697.30 L 918.80 702.90 L 928.70 708.30 L 937.50 713.70 L 944.50 718.70 L 950.60 723.50 L 955.90 728.30 L 960.30 732.90 L 963.90 737.50 L 966.80 741.80 L 969.10 746.00 L 970.80 750.20 L 972.00 754.30 L 972.80 758.40 L 973.00 762.50 Z" fill="url(#paint0_linear_1515_111182)" fill-rule="nonzero" node-id="228" stroke="none" target-height="255" target-width="934" target-x="39" target-y="635"/><path d="M 230.50 615.50 L 230.20 615.30 L 229.90 615.50 L 226.90 622.60 L 218.30 645.90 L 211.50 667.50 L 208.30 679.50 L 205.40 691.70 L 203.00 704.10 L 201.80 712.40 L 200.20 730.20 L 200.60 735.20 L 201.30 738.20 L 202.60 741.60 L 203.90 743.70 L 207.60 748.00 L 209.90 749.80 L 212.90 751.40 L 216.60 752.80 L 220.50 753.80 L 225.20 754.40 L 231.00 754.70 L 235.40 754.40 L 242.30 753.00 L 245.00 751.90 L 248.50 749.90 L 251.30 747.70 L 253.40 745.20 L 255.20 742.40 L 257.60 736.60 L 258.60 732.10 L 259.00 728.00 L 258.90 716.50 L 257.40 704.80 L 255.60 695.60 L 253.20 685.60 L 247.70 665.50 L 241.60 646.50 L 230.50 615.50 Z" fill="url(#paint1_linear_1515_111182)" fill-rule="nonzero" node-id="230" stroke="none" target-height="139.40002" target-width="58.800003" target-x="200.2" target-y="615.3"/><path d="M 229.70 784.30 L 228.90 784.00 L 228.60 783.30 L 228.60 631.80 L 228.90 631.00 L 229.70 630.70 L 230.40 631.00 L 230.70 631.80 L 230.70 783.30 L 230.40 784.00 L 229.70 784.30 Z" fill="url(#paint2_linear_1515_111182)" fill-rule="nonzero" node-id="232" stroke="none" target-height="153.59998" target-width="2.0999908" target-x="228.6" target-y="630.7"/><path d="M 869.40 810.70 L 876.50 808.00 L 879.90 806.20 L 883.30 803.80 L 886.60 801.00 L 890.80 795.80 L 891.90 792.80 L 891.70 791.30 L 890.20 789.40 L 888.00 788.50 L 886.20 788.50 L 883.50 789.00 L 879.20 790.50 L 870.90 794.80 L 870.30 794.80 L 869.30 794.30 L 868.80 793.30 L 868.80 792.70 L 870.30 790.40 L 872.70 788.30 L 882.60 781.40 L 890.70 774.50 L 894.20 770.10 L 895.40 767.60 L 896.00 765.10 L 895.60 762.50 L 893.80 760.60 L 892.50 760.00 L 890.40 759.60 L 888.20 759.80 L 883.70 761.50 L 881.60 762.90 L 878.80 765.30 L 873.10 770.90 L 869.80 773.30 L 868.00 774.00 L 866.00 774.40 L 864.00 774.00 L 863.30 773.30 L 862.80 771.30 L 863.30 769.30 L 873.00 757.80 L 876.50 752.90 L 879.40 747.70 L 881.00 744.00 L 882.20 740.20 L 883.00 736.20 L 883.20 732.20 L 882.90 728.30 L 882.00 724.40 L 880.70 721.20 L 878.60 718.40 L 877.20 717.30 L 874.00 716.10 L 872.30 716.10 L 869.40 717.10 L 866.50 719.90 L 863.60 725.20 L 862.30 728.50 L 860.40 737.40 L 858.20 756.20 L 856.90 760.60 L 855.10 763.20 L 853.70 763.30 L 852.30 761.90 L 848.10 748.80 L 846.80 746.00 L 843.90 742.10 L 840.90 740.30 L 839.20 740.10 L 837.80 740.30 L 835.40 741.60 L 834.00 743.30 L 833.00 745.30 L 832.60 747.40 L 832.70 749.60 L 833.60 753.90 L 835.10 757.60 L 837.00 761.10 L 839.20 764.50 L 844.50 770.90 L 845.60 772.70 L 846.30 774.70 L 846.30 776.10 L 845.40 778.80 L 844.50 779.90 L 843.40 780.60 L 842.10 780.70 L 840.70 780.30 L 830.70 774.80 L 826.80 773.70 L 824.90 773.80 L 823.00 774.40 L 820.70 776.20 L 819.40 779.00 L 819.00 780.80 L 819.00 782.70 L 820.00 786.10 L 824.10 793.50 L 827.40 798.30 L 830.10 801.60 L 833.10 804.50 L 838.20 808.40 L 841.60 810.20 L 845.80 811.70 L 852.20 812.90 L 860.00 812.70 L 864.40 812.00 L 869.40 810.70 Z" fill="url(#paint3_linear_1515_111182)" fill-rule="nonzero" node-id="234" stroke="none" target-height="96.80005" target-width="77" target-x="819" target-y="716.1"/><path d="M 718.10 460.10 L 717.80 469.80 L 717.10 479.20 L 716.00 488.40 L 714.50 497.50 L 712.60 506.50 L 710.20 515.40 L 707.50 524.10 L 704.40 532.60 L 700.90 540.90 L 697.10 549.00 L 691.70 559.00 L 685.90 568.50 L 679.50 577.70 L 672.70 586.60 L 665.30 595.00 L 657.60 603.10 L 649.40 610.70 L 640.70 617.90 L 631.70 624.60 L 622.30 630.80 L 612.50 636.50 L 602.40 641.70 L 594.10 645.50 L 585.60 648.90 L 576.90 652.00 L 568.00 654.60 L 558.90 656.90 L 549.70 658.80 L 540.40 660.30 L 531.00 661.40 L 521.30 662.10 L 511.50 662.30 L 501.70 662.10 L 492.10 661.40 L 482.60 660.30 L 473.30 658.80 L 464.20 656.90 L 455.10 654.60 L 446.20 652.00 L 437.50 648.90 L 429.00 645.50 L 420.70 641.70 L 410.50 636.50 L 400.80 630.80 L 391.40 624.60 L 382.40 617.90 L 373.70 610.70 L 365.50 603.10 L 357.70 595.00 L 350.40 586.60 L 343.50 577.70 L 337.20 568.50 L 331.30 559.00 L 326.00 549.00 L 322.10 540.90 L 318.70 532.60 L 315.60 524.10 L 312.80 515.40 L 310.50 506.50 L 308.50 497.50 L 307.00 488.40 L 305.90 479.20 L 305.20 469.80 L 305.00 460.10 L 305.20 450.50 L 305.90 441.10 L 307.00 431.80 L 308.50 422.70 L 310.50 413.80 L 312.80 404.90 L 315.60 396.20 L 318.70 387.70 L 322.10 379.40 L 326.00 371.20 L 331.30 361.30 L 337.20 351.80 L 343.50 342.60 L 350.40 333.70 L 357.70 325.20 L 365.50 317.20 L 373.70 309.60 L 382.40 302.40 L 391.40 295.70 L 400.80 289.50 L 410.50 283.80 L 420.70 278.50 L 429.00 274.80 L 437.50 271.40 L 446.20 268.30 L 455.10 265.70 L 464.20 263.30 L 473.30 261.40 L 482.60 260.00 L 492.10 258.90 L 501.70 258.20 L 511.50 258.00 L 521.30 258.20 L 531.00 258.90 L 540.40 260.00 L 549.70 261.40 L 558.90 263.30 L 568.00 265.70 L 576.90 268.30 L 585.60 271.40 L 594.10 274.80 L 602.40 278.50 L 612.50 283.80 L 622.30 289.50 L 631.70 295.70 L 640.70 302.40 L 649.40 309.60 L 657.60 317.20 L 665.30 325.20 L 672.70 333.70 L 679.50 342.60 L 685.90 351.80 L 691.70 361.30 L 697.10 371.20 L 700.90 379.40 L 704.40 387.70 L 707.50 396.20 L 710.20 404.90 L 712.60 413.80 L 714.50 422.70 L 716.00 431.80 L 717.10 441.10 L 717.80 450.50 L 718.10 460.10 Z" fill="url(#paint4_linear_1515_111182)" fill-rule="nonzero" node-id="236" stroke="none" target-height="404.3" target-width="413.09998" target-x="305" target-y="258"/><path d="M 718.10 470.90 L 717.80 480.50 L 717.10 489.90 L 716.00 499.20 L 714.50 508.30 L 712.60 517.20 L 710.20 526.10 L 707.50 534.80 L 704.40 543.30 L 700.90 551.60 L 697.10 559.80 L 691.70 569.70 L 685.90 579.20 L 679.50 588.40 L 672.70 597.30 L 665.30 605.80 L 657.60 613.80 L 649.40 621.40 L 640.70 628.60 L 631.70 635.30 L 622.30 641.50 L 612.50 647.20 L 602.40 652.50 L 594.10 656.20 L 585.60 659.60 L 576.90 662.70 L 568.00 665.30 L 558.90 667.70 L 549.70 669.60 L 540.40 671.00 L 531.00 672.10 L 521.30 672.80 L 511.50 673.00 L 501.70 672.80 L 492.10 672.10 L 482.60 671.00 L 473.30 669.60 L 464.20 667.70 L 455.10 665.30 L 446.20 662.70 L 437.50 659.60 L 429.00 656.20 L 420.70 652.50 L 410.50 647.20 L 400.80 641.50 L 391.40 635.30 L 382.40 628.60 L 373.70 621.40 L 365.50 613.80 L 357.70 605.80 L 350.40 597.30 L 343.50 588.40 L 337.20 579.20 L 331.30 569.70 L 326.00 559.80 L 322.10 551.60 L 318.70 543.30 L 315.60 534.80 L 312.80 526.10 L 310.50 517.20 L 308.50 508.30 L 307.00 499.20 L 305.90 489.90 L 305.20 480.50 L 305.00 470.90 L 305.20 461.20 L 305.90 451.80 L 307.00 442.60 L 308.50 433.50 L 310.50 424.50 L 312.80 415.60 L 315.60 406.90 L 318.70 398.40 L 322.10 390.10 L 326.00 382.00 L 331.30 372.00 L 337.20 362.50 L 343.50 353.30 L 350.40 344.40 L 357.70 336.00 L 365.50 327.90 L 373.70 320.30 L 382.40 313.10 L 391.40 306.40 L 400.80 300.20 L 410.50 294.50 L 420.70 289.30 L 429.00 285.50 L 437.50 282.10 L 446.20 279.00 L 455.10 276.40 L 464.20 274.10 L 473.30 272.20 L 482.60 270.70 L 492.10 269.60 L 501.70 268.90 L 511.50 268.70 L 521.30 268.90 L 531.00 269.60 L 540.40 270.70 L 549.70 272.20 L 558.90 274.10 L 568.00 276.40 L 576.90 279.00 L 585.60 282.10 L 594.10 285.50 L 602.40 289.30 L 612.50 294.50 L 622.30 300.20 L 631.70 306.40 L 640.70 313.10 L 649.40 320.30 L 657.60 327.90 L 665.30 336.00 L 672.70 344.40 L 679.50 353.30 L 685.90 362.50 L 691.70 372.00 L 697.10 382.00 L 700.90 390.10 L 704.40 398.40 L 707.50 406.90 L 710.20 415.60 L 712.60 424.50 L 714.50 433.50 L 716.00 442.60 L 717.10 451.80 L 717.80 461.20 L 718.10 470.90 Z" fill="url(#paint5_linear_1515_111182)" fill-rule="nonzero" node-id="238" stroke="none" target-height="404.3" target-width="413.09998" target-x="305" target-y="268.7"/><path d="M 672.30 477.20 L 672.00 485.90 L 671.30 494.40 L 670.20 502.70 L 668.60 510.90 L 666.50 518.90 L 664.10 526.80 L 661.20 534.50 L 658.00 542.00 L 654.40 549.20 L 650.40 556.30 L 646.00 563.20 L 641.30 569.80 L 636.30 576.10 L 631.00 582.20 L 625.30 588.10 L 619.40 593.60 L 613.20 598.80 L 606.70 603.70 L 599.90 608.30 L 592.90 612.60 L 585.70 616.50 L 578.20 620.00 L 570.60 623.20 L 562.70 626.00 L 554.60 628.40 L 546.40 630.40 L 538.10 631.90 L 529.60 633.10 L 520.90 633.80 L 512.00 634.00 L 503.10 633.80 L 494.40 633.10 L 485.90 631.90 L 477.60 630.40 L 469.40 628.40 L 461.30 626.00 L 453.40 623.20 L 445.80 620.00 L 438.40 616.50 L 431.10 612.60 L 424.10 608.30 L 417.30 603.70 L 410.90 598.80 L 404.60 593.60 L 398.70 588.10 L 393.00 582.20 L 387.70 576.10 L 382.70 569.80 L 378.00 563.20 L 373.60 556.30 L 369.60 549.20 L 366.00 542.00 L 362.80 534.50 L 360.00 526.80 L 357.50 518.90 L 355.50 510.90 L 353.90 502.70 L 352.70 494.40 L 352.00 485.90 L 351.80 477.20 L 352.00 468.50 L 352.70 460.00 L 353.90 451.60 L 355.50 443.50 L 357.50 435.50 L 360.00 427.50 L 362.80 419.80 L 366.00 412.40 L 369.60 405.10 L 373.60 398.00 L 378.00 391.10 L 382.70 384.50 L 387.70 378.20 L 393.00 372.10 L 398.70 366.30 L 404.60 360.70 L 410.90 355.50 L 417.30 350.60 L 424.10 346.00 L 431.10 341.70 L 438.40 337.80 L 445.80 334.30 L 453.40 331.10 L 461.30 328.30 L 469.40 325.90 L 477.60 323.90 L 485.90 322.40 L 494.40 321.30 L 503.10 320.60 L 512.00 320.30 L 520.90 320.60 L 529.60 321.30 L 538.10 322.40 L 546.40 323.90 L 554.60 325.90 L 562.70 328.30 L 570.60 331.10 L 578.20 334.30 L 585.70 337.80 L 592.90 341.70 L 599.90 346.00 L 606.70 350.60 L 613.20 355.50 L 619.40 360.70 L 625.30 366.30 L 631.00 372.10 L 636.30 378.20 L 641.30 384.50 L 646.00 391.10 L 650.40 398.00 L 654.40 405.10 L 658.00 412.40 L 661.20 419.80 L 664.10 427.50 L 666.50 435.50 L 668.60 443.50 L 670.20 451.60 L 671.30 460.00 L 672.00 468.50 L 672.30 477.20 Z" fill="url(#paint6_linear_1515_111182)" fill-rule="nonzero" node-id="240" stroke="none" target-height="313.7" target-width="320.5" target-x="351.8" target-y="320.3"/><path d="M 672.30 468.40 L 672.00 477.10 L 671.30 485.60 L 670.20 494.00 L 668.60 502.10 L 666.50 510.10 L 664.10 518.00 L 661.20 525.70 L 658.00 533.20 L 654.40 540.50 L 650.40 547.60 L 646.00 554.50 L 641.30 561.10 L 636.30 567.40 L 631.00 573.50 L 625.30 579.30 L 619.40 584.90 L 613.20 590.10 L 606.70 595.00 L 599.90 599.60 L 592.90 603.90 L 585.70 607.80 L 578.20 611.30 L 570.60 614.50 L 562.70 617.20 L 554.60 619.70 L 546.40 621.60 L 538.10 623.20 L 529.60 624.30 L 520.90 625.00 L 512.00 625.30 L 503.10 625.00 L 494.40 624.30 L 485.90 623.20 L 477.60 621.60 L 469.40 619.70 L 461.30 617.20 L 453.40 614.40 L 445.80 611.30 L 438.40 607.80 L 431.10 603.90 L 424.10 599.60 L 417.30 595.00 L 410.90 590.10 L 404.60 584.90 L 398.70 579.30 L 393.00 573.50 L 387.70 567.40 L 382.70 561.10 L 378.00 554.50 L 373.60 547.60 L 369.60 540.50 L 366.00 533.20 L 362.80 525.70 L 360.00 518.00 L 357.50 510.10 L 355.50 502.10 L 353.90 494.00 L 352.70 485.60 L 352.00 477.10 L 351.80 468.40 L 352.00 459.70 L 352.70 451.20 L 353.90 442.90 L 355.50 434.70 L 357.50 426.70 L 360.00 418.80 L 362.80 411.10 L 366.00 403.60 L 369.60 396.30 L 373.60 389.30 L 378.00 382.40 L 382.70 375.80 L 387.70 369.40 L 393.00 363.40 L 398.70 357.50 L 404.60 352.00 L 410.90 346.80 L 417.30 341.90 L 424.10 337.30 L 431.10 333.00 L 438.40 329.10 L 445.80 325.60 L 453.40 322.40 L 461.30 319.60 L 469.40 317.20 L 477.60 315.20 L 485.90 313.60 L 494.40 312.50 L 503.10 311.80 L 512.00 311.60 L 520.90 311.80 L 529.60 312.50 L 538.10 313.60 L 546.40 315.20 L 554.60 317.20 L 562.70 319.60 L 570.60 322.40 L 578.20 325.60 L 585.70 329.10 L 592.90 333.00 L 599.90 337.30 L 606.70 341.90 L 613.20 346.80 L 619.40 352.00 L 625.30 357.50 L 631.00 363.40 L 636.30 369.40 L 641.30 375.80 L 646.00 382.40 L 650.40 389.30 L 654.40 396.30 L 658.00 403.60 L 661.20 411.10 L 664.10 418.80 L 666.50 426.70 L 668.60 434.70 L 670.20 442.90 L 671.30 451.20 L 672.00 459.70 L 672.30 468.40 Z" fill="url(#paint7_linear_1515_111182)" fill-rule="nonzero" node-id="242" stroke="none" target-height="313.69998" target-width="320.5" target-x="351.8" target-y="311.6"/><path d="M 579.70 403.10 L 581.70 405.60 L 583.30 408.30 L 584.30 411.10 L 584.80 414.10 L 584.80 417.00 L 584.30 420.00 L 583.30 422.90 L 581.70 425.50 L 579.70 428.00 L 539.30 468.40 L 579.70 508.80 L 581.70 511.30 L 583.30 513.90 L 584.30 516.80 L 584.80 519.70 L 584.80 522.70 L 584.30 525.70 L 583.30 528.50 L 581.70 531.20 L 579.70 533.70 L 577.20 535.70 L 574.60 537.20 L 571.70 538.20 L 568.70 538.70 L 565.80 538.70 L 562.80 538.20 L 559.90 537.20 L 557.30 535.70 L 554.80 533.70 L 514.40 493.30 L 474.00 533.70 L 471.50 535.70 L 468.90 537.20 L 466.10 538.20 L 463.10 538.70 L 460.10 538.70 L 457.10 538.20 L 454.30 537.20 L 451.60 535.70 L 449.20 533.70 L 447.10 531.20 L 445.60 528.50 L 444.60 525.70 L 444.10 522.70 L 444.10 519.70 L 444.60 516.80 L 445.60 513.90 L 447.10 511.30 L 449.20 508.80 L 489.60 468.40 L 449.20 428.00 L 447.10 425.50 L 445.60 422.90 L 444.60 420.00 L 444.10 417.00 L 444.10 414.10 L 444.60 411.10 L 445.60 408.30 L 447.10 405.60 L 449.20 403.10 L 451.60 401.10 L 454.30 399.60 L 457.10 398.60 L 460.10 398.10 L 463.10 398.10 L 466.10 398.60 L 468.90 399.60 L 471.50 401.10 L 474.00 403.10 L 514.40 443.50 L 554.80 403.10 L 557.30 401.10 L 559.90 399.60 L 562.80 398.60 L 565.80 398.10 L 568.70 398.10 L 571.70 398.60 L 574.60 399.60 L 577.20 401.10 L 579.70 403.10 Z" fill="url(#paint8_linear_1515_111182)" fill-rule="evenodd" node-id="244" stroke="none" target-height="140.6" target-width="140.69998" target-x="444.1" target-y="398.1"/><path d="M 414.00 773.50 L 413.70 775.00 L 413.00 776.40 L 411.70 777.90 L 409.60 779.50 L 406.60 781.20 L 402.60 782.80 L 397.50 784.50 L 386.30 786.80 L 379.50 787.80 L 365.40 788.80 L 357.50 789.00 L 349.60 788.80 L 335.50 787.80 L 328.70 786.80 L 317.50 784.50 L 312.40 782.80 L 308.40 781.20 L 305.40 779.50 L 303.30 777.90 L 302.00 776.40 L 301.30 775.00 L 301.00 773.50 L 301.30 772.00 L 302.00 770.60 L 303.30 769.10 L 305.40 767.50 L 308.40 765.80 L 312.40 764.20 L 317.50 762.50 L 328.70 760.20 L 335.50 759.20 L 349.60 758.20 L 357.50 758.00 L 365.40 758.20 L 379.50 759.20 L 386.30 760.20 L 397.50 762.50 L 402.60 764.20 L 406.60 765.80 L 409.60 767.50 L 411.70 769.10 L 413.00 770.60 L 413.70 772.00 L 414.00 773.50 Z" fill="#7d7d7d" fill-opacity="0.15" fill-rule="nonzero" node-id="246" stroke="none" target-height="31" target-width="113" target-x="301" target-y="758"/><path d="M 361.40 488.30 L 338.00 488.30 L 338.00 512.80 L 361.40 512.80 L 361.40 488.30 Z" fill="url(#paint9_linear_1515_111182)" fill-rule="nonzero" node-id="248" stroke="none" target-height="24.5" target-width="23.399994" target-x="338" target-y="488.3"/><path d="M 352.80 497.20 L 356.10 497.00 L 359.20 496.30 L 362.10 495.10 L 364.90 493.50 L 367.40 491.50 L 369.70 489.20 L 371.70 486.60 L 373.40 483.70 L 374.80 480.40 L 375.80 477.10 L 376.40 473.50 L 376.70 469.70 L 376.40 465.90 L 375.80 462.40 L 374.80 459.00 L 373.40 455.80 L 371.70 452.90 L 369.70 450.30 L 367.40 447.90 L 364.90 446.00 L 362.10 444.40 L 359.20 443.20 L 356.10 442.50 L 352.80 442.20 L 349.60 442.50 L 346.50 443.20 L 343.60 444.40 L 340.80 446.00 L 338.30 447.90 L 336.00 450.30 L 334.00 452.90 L 332.30 455.80 L 330.90 459.00 L 329.90 462.40 L 329.30 465.90 L 329.00 469.70 L 329.30 473.50 L 329.90 477.10 L 330.90 480.40 L 332.30 483.70 L 334.00 486.60 L 336.00 489.20 L 338.30 491.50 L 340.80 493.50 L 343.60 495.10 L 346.50 496.30 L 349.60 497.00 L 352.80 497.20 Z" fill="url(#paint10_linear_1515_111182)" fill-rule="nonzero" node-id="250" stroke="none" target-height="55" target-width="47.700012" target-x="329" target-y="442.2"/><path d="M 335.40 431.90 L 334.20 430.20 L 331.00 427.50 L 327.10 426.00 L 324.90 425.80 L 322.70 426.00 L 318.90 427.40 L 315.70 430.10 L 314.50 431.80 L 313.10 435.80 L 312.90 438.00 L 313.20 440.60 L 314.00 443.00 L 315.20 445.20 L 316.90 447.10 L 314.90 451.50 L 313.60 455.60 L 313.00 459.50 L 312.80 463.40 L 313.10 467.10 L 315.00 473.90 L 317.70 479.60 L 320.30 483.20 L 322.80 485.90 L 325.30 487.70 L 327.90 489.10 L 330.70 490.20 L 335.20 491.10 L 339.60 491.50 L 347.80 491.00 L 356.10 489.30 L 359.30 487.60 L 362.70 484.90 L 363.70 483.60 L 364.90 480.50 L 363.60 480.60 L 362.00 480.20 L 360.40 479.30 L 358.90 477.90 L 357.80 476.10 L 357.10 473.80 L 357.00 472.10 L 357.80 468.10 L 360.20 465.80 L 361.20 465.30 L 362.90 465.10 L 364.40 465.50 L 365.80 466.20 L 369.60 469.80 L 371.90 467.10 L 373.60 465.70 L 377.30 464.10 L 378.10 463.30 L 377.90 457.30 L 377.10 453.00 L 375.80 449.10 L 373.40 444.20 L 371.50 441.60 L 368.30 438.20 L 366.40 436.60 L 362.20 434.10 L 358.30 432.30 L 354.70 431.10 L 347.50 430.00 L 344.30 430.10 L 339.50 430.70 L 335.40 431.90 Z" fill="url(#paint11_linear_1515_111182)" fill-rule="evenodd" node-id="252" stroke="none" target-height="65.70001" target-width="65.30002" target-x="312.8" target-y="425.8"/><path d="M 322.40 752.30 L 332.50 752.20 L 332.60 765.70 L 322.50 765.70 Z" fill="#fee4c3" fill-rule="nonzero" group-id="1" node-id="256" stroke="none" target-height="13.5" target-width="10.200012" target-x="322.4" target-y="752.2"/><path d="M 346.30 765.10 L 346.50 767.40 L 346.00 769.20 L 345.00 770.90 L 343.50 772.10 L 341.20 773.30 L 337.60 774.20 L 330.40 775.40 L 326.90 775.50 L 324.00 775.20 L 322.30 774.60 L 321.00 773.70 L 319.50 771.50 L 319.50 768.40 L 320.10 766.40 L 321.70 763.50 L 325.10 764.10 L 327.60 763.90 L 331.20 762.60 L 333.30 761.30 L 339.50 761.60 L 344.10 762.70 L 345.20 763.30 L 346.30 765.10 Z" fill="#4f538f" fill-rule="nonzero" node-id="259" stroke="none" target-height="14.200012" target-width="27" target-x="319.5" target-y="761.3"/><path d="M 365.40 749.70 L 375.50 749.70 L 375.60 763.10 L 365.50 763.20 Z" fill="#fee4c3" fill-rule="nonzero" group-id="2" node-id="263" stroke="none" target-height="13.5" target-width="10.200012" target-x="365.4" target-y="749.7"/><path d="M 390.00 763.50 L 389.90 766.50 L 388.30 768.80 L 386.70 769.90 L 384.10 770.80 L 380.50 771.70 L 373.30 772.80 L 369.80 773.00 L 366.90 772.60 L 365.20 772.00 L 363.90 771.10 L 362.50 768.90 L 362.40 765.80 L 363.00 763.80 L 364.70 760.90 L 368.10 761.50 L 370.60 761.30 L 374.10 760.10 L 376.20 758.80 L 379.60 758.90 L 385.50 759.90 L 387.70 760.80 L 388.90 761.50 L 390.00 763.50 Z" fill="#4f538f" fill-rule="nonzero" node-id="266" stroke="none" target-height="14.200012" target-width="27.600006" target-x="362.4" target-y="758.8"/><path d="M 310.70 609.20 L 312.00 645.60 L 315.00 701.20 L 316.80 728.00 L 319.40 756.70 L 339.80 756.50 L 345.20 675.10 L 347.80 619.30 L 351.80 649.70 L 356.20 688.00 L 359.80 726.20 L 362.30 756.40 L 381.40 756.20 L 383.70 727.30 L 384.70 700.90 L 384.80 609.20 L 310.70 609.20 Z" fill="#d1e2ff" fill-rule="nonzero" node-id="268" stroke="none" target-height="147.5" target-width="74.099976" target-x="310.7" target-y="609.2"/><path d="M 379.10 456.10 L 380.20 455.50 L 382.10 455.50 L 383.50 456.20 L 385.10 457.60 L 390.40 464.10 L 393.10 469.00 L 393.60 471.20 L 393.60 472.50 L 393.10 473.70 L 392.20 474.70 L 389.60 475.80 L 387.90 475.90 L 385.50 475.50 L 382.90 474.40 L 380.50 472.70 L 378.40 470.60 L 374.00 468.10 L 372.50 466.80 L 370.40 463.60 L 369.80 460.50 L 370.40 457.80 L 371.20 456.70 L 373.60 455.40 L 375.00 455.20 L 379.10 456.10 Z" fill="url(#paint12_linear_1515_111182)" fill-rule="nonzero" node-id="270" stroke="none" target-height="20.699982" target-width="23.800018" target-x="369.8" target-y="455.2"/><path d="M 287.90 612.80 L 286.90 612.30 L 285.70 610.80 L 285.40 609.20 L 285.50 607.10 L 287.40 598.90 L 289.70 593.80 L 291.10 592.10 L 292.20 591.30 L 293.40 591.00 L 294.80 591.10 L 297.30 592.50 L 298.30 593.80 L 299.50 596.00 L 300.20 598.70 L 300.30 601.60 L 299.90 604.60 L 300.60 609.60 L 300.40 611.60 L 299.20 615.20 L 297.10 617.60 L 294.60 618.70 L 293.30 618.70 L 290.70 617.70 L 289.70 616.60 L 287.90 612.80 Z" fill="url(#paint13_linear_1515_111182)" fill-rule="nonzero" node-id="272" stroke="none" target-height="27.700012" target-width="15.200012" target-x="285.4" target-y="591"/><path d="M 382.90 541.10 L 383.30 549.80 L 384.60 565.60 L 389.10 607.10 L 388.40 608.70 L 380.50 612.10 L 372.80 614.70 L 365.40 616.70 L 357.90 618.10 L 350.90 619.00 L 344.30 619.50 L 331.80 619.30 L 319.40 617.60 L 314.50 616.30 L 311.30 615.20 L 309.30 613.80 L 308.70 608.60 L 308.60 597.80 L 309.10 583.40 L 304.60 594.50 L 300.90 607.60 L 299.30 606.20 L 297.40 605.30 L 294.30 604.40 L 289.30 604.00 L 285.90 604.30 L 284.60 599.20 L 284.40 596.50 L 284.90 589.20 L 287.10 578.00 L 290.70 563.40 L 295.80 548.70 L 302.30 533.70 L 309.60 520.10 L 313.20 514.60 L 318.10 508.40 L 324.40 503.10 L 327.50 501.10 L 329.60 500.30 L 333.20 499.90 L 336.80 501.00 L 339.10 502.30 L 340.10 505.10 L 342.50 506.20 L 348.90 507.60 L 353.00 507.80 L 358.90 506.20 L 362.10 504.20 L 363.10 502.80 L 366.60 501.90 L 369.40 501.60 L 378.20 502.50 L 381.10 503.30 L 385.10 505.40 L 388.70 506.20 L 391.50 506.10 L 394.10 505.40 L 396.50 504.30 L 398.40 502.80 L 399.00 501.00 L 399.10 499.40 L 397.90 496.10 L 396.70 494.40 L 391.60 488.80 L 384.90 480.50 L 382.00 475.60 L 381.60 474.20 L 382.40 472.30 L 383.50 471.20 L 387.60 468.10 L 391.70 465.70 L 398.30 471.10 L 405.90 478.00 L 413.00 485.60 L 416.00 489.40 L 418.30 493.00 L 420.10 497.50 L 420.80 503.90 L 420.70 507.20 L 419.30 514.20 L 416.90 520.40 L 415.20 523.40 L 413.00 526.30 L 410.30 529.30 L 407.30 532.00 L 403.70 534.50 L 399.40 536.80 L 394.80 538.60 L 389.40 540.00 L 382.90 541.10 Z M 300.90 607.70 L 300.90 607.60 Z" fill="url(#paint14_linear_1515_111182)" fill-rule="evenodd" node-id="274" stroke="none" target-height="153.79999" target-width="136.4" target-x="284.4" target-y="465.7"/><path d="M 364.60 502.90 L 362.90 501.70 L 361.30 501.30 L 358.90 503.20 L 356.70 504.60 L 354.50 505.30 L 350.10 505.70 L 348.00 505.40 L 345.00 504.40 L 342.30 503.00 L 338.20 499.60 L 337.10 499.80 L 334.90 501.30 L 338.70 504.30 L 342.10 506.40 L 345.10 507.70 L 348.30 508.60 L 351.20 509.00 L 353.70 508.80 L 358.40 507.60 L 362.90 504.70 L 364.60 502.90 Z" fill="#5b7efb" fill-rule="nonzero" node-id="276" stroke="none" target-height="9.399994" target-width="29.700012" target-x="334.9" target-y="499.6"/><path d="M 768.00 564.30 L 769.80 561.40 L 773.60 558.80 L 779.50 556.90 L 785.50 556.10 L 788.20 556.10 L 787.50 560.10 L 786.50 563.30 L 785.00 566.00 L 783.10 568.30 L 781.00 570.20 L 778.60 571.80 L 773.30 573.90 L 766.20 575.00 L 762.20 575.10 L 755.10 574.50 L 759.40 573.00 L 761.80 571.60 L 764.30 569.60 L 767.00 566.30 L 768.00 564.30 Z" fill="url(#paint15_linear_1515_111182)" fill-rule="nonzero" node-id="278" stroke="none" target-height="19" target-width="33.100037" target-x="755.1" target-y="556.1"/><path d="M 786.10 558.30 L 783.90 560.70 L 780.40 563.80 L 774.60 567.90 L 767.10 571.60 L 762.90 573.10 L 758.10 574.40" fill="none" node-id="280" stroke="url(#paint16_linear_1515_111182)" stroke-linecap="butt" stroke-width="0.3" target-height="16.100037" target-width="28" target-x="758.1" target-y="558.3"/><path d="M 844.60 452.00 L 844.60 457.90 L 844.10 465.40 L 843.00 473.30 L 841.20 482.20 L 837.70 494.40 L 835.30 500.90 L 832.60 507.20 L 829.40 513.50 L 825.70 519.90 L 821.60 526.00 L 816.90 532.00 L 811.60 537.80 L 802.80 545.80 L 792.50 553.00" fill="none" node-id="282" stroke="url(#paint17_linear_1515_111182)" stroke-linecap="butt" stroke-width="1" target-height="101" target-width="52.099976" target-x="792.5" target-y="452"/><path d="M 808.40 480.00 L 807.10 489.80 L 806.10 494.60 L 804.60 499.00 L 801.90 504.00 L 800.20 505.90 L 798.20 507.40 L 796.00 508.50 L 793.40 509.00 L 791.80 508.90 L 790.10 508.20 L 789.40 507.20 L 789.40 505.90 L 789.70 504.60 L 791.60 502.30 L 792.80 501.80 L 794.50 501.90 L 795.50 502.50 L 796.40 503.60 L 797.00 505.00 L 797.20 506.90 L 797.00 508.80 L 796.30 510.90 L 795.10 513.30 L 793.50 515.40 L 791.20 517.60 L 788.00 519.80 L 784.70 521.50 L 780.40 523.00 L 774.90 524.40" fill="none" node-id="284" stroke="url(#paint18_linear_1515_111182)" stroke-linecap="butt" stroke-width="1" target-height="44.400024" target-width="33.5" target-x="774.9" target-y="480"/><path d="M 857.70 504.90 L 856.10 512.60 L 854.80 517.00 L 851.10 526.40 L 848.70 531.00 L 845.90 535.30 L 842.80 539.00 L 840.40 541.20 L 837.90 542.90 L 835.20 544.30" fill="none" node-id="286" stroke="url(#paint19_linear_1515_111182)" stroke-linecap="butt" stroke-width="1" target-height="39.399994" target-width="22.5" target-x="835.2" target-y="504.9"/><path d="M 247.90 307.40 L 281.20 295.40 L 279.00 290.80 L 274.60 284.40 L 268.80 278.80 L 262.70 275.10 L 259.30 273.70 L 255.40 272.60 L 251.00 272.00 L 246.60 271.90 L 241.50 272.50 L 235.80 273.70" fill="#6cb8ff" fill-rule="nonzero" node-id="288" stroke="none" target-height="35.5" target-width="45.40001" target-x="235.8" target-y="271.9"/><path d="M 277.50 304.10 L 278.90 308.90 L 279.60 313.60 L 279.70 318.30 L 279.10 322.90 L 278.00 327.40 L 276.40 331.70 L 274.20 335.70 L 271.50 339.40 L 268.30 342.80 L 262.80 347.00 L 259.70 348.70 L 256.20 350.20 L 249.20 351.90 L 242.20 352.20 L 237.60 351.60 L 233.20 350.50 L 228.90 348.80 L 224.90 346.50 L 221.20 343.80 L 217.90 340.60 L 214.90 336.90 L 212.40 332.80 L 210.40 328.30 L 209.10 323.50 L 208.40 318.80 L 208.30 314.10 L 208.80 309.50 L 209.90 305.00 L 211.60 300.70 L 213.80 296.70 L 216.50 293.00 L 219.60 289.60 L 222.30 287.30 L 228.30 283.70 L 231.70 282.20 L 244.00 316.20 L 277.50 304.10 Z" fill="#6cb8ff" fill-rule="nonzero" node-id="290" stroke="none" target-height="70" target-width="71.40001" target-x="208.3" target-y="282.2"/><path d="M 579.40 188.20 L 580.70 188.70 L 582.70 190.70 L 583.20 192.00 L 583.20 194.80 L 574.30 229.70 L 572.90 232.10 L 570.50 233.50 L 567.70 233.60 L 559.40 231.20 L 557.40 229.30 L 556.70 226.60 L 565.90 190.30 L 567.20 187.90 L 569.70 186.40 L 572.40 186.40 L 579.40 188.20 Z M 528.90 182.60 L 529.90 183.00 L 531.60 184.30 L 532.70 186.10 L 532.90 188.20 L 525.10 218.50 L 523.10 220.40 L 520.50 221.20 L 512.10 219.20 L 510.80 218.70 L 508.80 216.70 L 508.00 214.10 L 515.90 183.40 L 517.90 181.40 L 520.50 180.70 L 528.90 182.60 Z M 551.40 195.90 L 553.90 197.20 L 554.70 198.40 L 555.50 201.00 L 549.40 224.70 L 547.40 226.70 L 544.80 227.40 L 536.40 225.50 L 535.10 224.90 L 533.10 223.00 L 532.40 220.30 L 538.50 196.60 L 540.40 194.70 L 543.10 193.90 L 551.40 195.90 Z M 578.20 166.50 L 574.10 165.50 L 572.50 164.20 L 572.20 163.30 L 572.70 161.30 L 574.40 160.30 L 575.40 160.30 L 585.90 162.90 L 587.20 163.70 L 587.70 164.40 L 587.80 166.20 L 585.10 176.70 L 584.70 177.60 L 583.90 178.30 L 582.90 178.70 L 581.80 178.60 L 580.90 178.20 L 580.20 177.40 L 579.80 176.40 L 579.90 175.30 L 581.00 171.10 L 551.60 188.60 L 550.00 188.90 L 549.20 188.80 L 520.90 166.40 L 520.20 165.60 L 519.90 164.60 L 519.90 163.50 L 520.40 162.60 L 521.20 161.90 L 522.20 161.60 L 523.30 161.60 L 524.20 162.10 L 550.40 183.00 L 578.20 166.50 Z" fill="#6cb8ff" fill-rule="nonzero" node-id="292" stroke="none" target-height="73.3" target-width="79.79999" target-x="508" target-y="160.3"/><path d="M 807.00 323.90 L 801.70 320.20 L 796.10 317.10 L 790.40 314.60 L 784.30 312.60 L 778.10 311.10 L 771.90 310.30 L 765.40 310.00 L 758.90 310.30 L 756.50 311.20 L 755.00 313.10 L 754.50 315.60 L 755.50 318.00 L 757.40 319.60 L 758.70 319.90 L 765.30 319.70 L 770.50 319.90 L 775.60 320.50 L 780.60 321.60 L 785.60 323.20 L 790.30 325.10 L 794.90 327.50 L 799.40 330.40 L 807.00 323.90 Z M 790.00 338.20 L 785.60 335.80 L 781.10 333.90 L 776.40 332.50 L 771.50 331.60 L 766.60 331.30 L 761.50 331.40 L 759.20 332.30 L 757.60 334.30 L 757.20 336.90 L 758.00 339.30 L 759.90 340.80 L 761.10 341.20 L 769.20 341.30 L 772.50 341.80 L 778.90 343.60 L 782.00 344.90 L 790.00 338.20 Z M 793.40 353.60 L 800.90 347.40 L 803.60 350.90 L 806.00 354.60 L 808.10 358.50 L 809.80 362.60 L 811.10 366.90 L 812.00 371.30 L 811.70 373.80 L 810.30 375.80 L 809.20 376.40 L 806.90 376.80 L 804.90 376.30 L 803.50 375.20 L 802.20 372.70 L 801.50 369.10 L 799.10 362.50 L 797.50 359.30 L 793.40 353.60 Z M 773.80 351.80 L 770.60 351.10 L 767.30 350.70 L 763.90 350.70 L 761.50 351.50 L 760.60 352.40 L 759.50 354.60 L 759.70 357.10 L 761.00 359.20 L 762.30 359.90 L 763.70 360.30 L 773.80 351.80 Z M 778.70 366.00 L 786.20 359.70 L 788.50 362.70 L 790.40 366.00 L 791.90 369.60 L 792.80 373.30 L 792.80 374.60 L 792.50 375.80 L 791.10 377.80 L 788.80 378.90 L 787.30 379.00 L 784.90 378.10 L 783.80 376.80 L 781.60 370.20 L 778.70 366.00 Z M 809.80 339.80 L 817.30 333.60 L 821.30 338.70 L 824.80 344.20 L 827.70 350.00 L 830.10 356.00 L 832.00 362.30 L 833.20 368.80 L 832.90 371.30 L 831.40 373.20 L 829.10 374.30 L 827.10 374.20 L 825.30 373.30 L 824.10 372.00 L 823.40 370.20 L 822.40 364.60 L 820.90 359.20 L 818.80 354.00 L 816.30 349.00 L 813.30 344.30 L 809.80 339.80 Z" fill="#6cb8ff" fill-rule="evenodd" node-id="294" stroke="none" target-height="69" target-width="78.70001" target-x="754.5" target-y="310"/><path d="M 815.30 319.80 L 816.40 319.10 L 818.80 318.70 L 821.10 319.50 L 822.10 320.40 L 822.80 321.50 L 823.20 323.90 L 822.30 326.20 L 821.50 327.20 L 763.20 376.00 L 762.10 376.70 L 759.70 377.10 L 757.50 376.30 L 756.50 375.40 L 755.80 374.30 L 755.40 371.90 L 756.20 369.70 L 757.10 368.70 L 815.30 319.80 Z" fill="#74bcff" fill-rule="nonzero" node-id="296" stroke="none" target-height="58.399994" target-width="67.79999" target-x="755.4" target-y="318.7"/></g></svg>