<svg xmlns:xlink="http://www.w3.org/1999/xlink" xmlns="http://www.w3.org/2000/svg" data-v-a850baf3="" data-v-b95c7ff5="" aria-hidden="true" class="svg-icon icon-menu-file" style="width: 28px; height: 28px;" width="1024" height="1024"><defs><symbol class="icon" viewBox="0 0 1024 1024" id="icon-menu-file"><path d="M372.364 0h279.272Q1024 0 1024 372.364v279.272Q1024 1024 651.636 1024H372.364Q0 1024 0 651.636V372.364Q0 0 372.364 0Z" fill="#F7A647"></path><path d="M232.727 303.872c0-13.545 11.055-24.6 24.6-24.6h148.63c5.621 0 10.986 2.293 14.849 6.284l50.897 52.806a20.354 20.354 0 0 1 3.037 4.05h259.875c31.14 0 56.658 25.46 56.658 56.61v289.036c0 31.15-25.519 56.67-56.658 56.67H289.396c-31.15 0-56.669-25.52-56.669-56.67V303.872zm493.976 252.346H486.877a10.217 10.217 0 0 0-10.205 10.205v25.39c0 5.621 4.585 10.206 10.205 10.206h239.826a10.217 10.217 0 0 0 10.205-10.205v-25.39a10.217 10.217 0 0 0-10.205-10.206zm-.059-87.691H486.82a10.217 10.217 0 0 0-10.205 10.205h-.07v25.39c0 5.632 4.573 10.217 10.205 10.217h239.895a10.217 10.217 0 0 0 10.205-10.217V478.72a10.217 10.217 0 0 0-10.205-10.205z" fill="#FFFFFF"></path></symbol></defs><g><path d="M372.364 0h279.272Q1024 0 1024 372.364v279.272Q1024 1024 651.636 1024H372.364Q0 1024 0 651.636V372.364Q0 0 372.364 0Z" fill="#F7A647"></path><path d="M232.727 303.872c0-13.545 11.055-24.6 24.6-24.6h148.63c5.621 0 10.986 2.293 14.849 6.284l50.897 52.806a20.354 20.354 0 0 1 3.037 4.05h259.875c31.14 0 56.658 25.46 56.658 56.61v289.036c0 31.15-25.519 56.67-56.658 56.67H289.396c-31.15 0-56.669-25.52-56.669-56.67V303.872zm493.976 252.346H486.877a10.217 10.217 0 0 0-10.205 10.205v25.39c0 5.621 4.585 10.206 10.205 10.206h239.826a10.217 10.217 0 0 0 10.205-10.205v-25.39a10.217 10.217 0 0 0-10.205-10.206zm-.059-87.691H486.82a10.217 10.217 0 0 0-10.205 10.205h-.07v25.39c0 5.632 4.573 10.217 10.205 10.217h239.895a10.217 10.217 0 0 0 10.205-10.217V478.72a10.217 10.217 0 0 0-10.205-10.205z" fill="#FFFFFF"></path></g></svg>