<svg xmlns:xlink="http://www.w3.org/1999/xlink" xmlns="http://www.w3.org/2000/svg" data-v-a850baf3="" data-v-840b4794="" data-v-339d1cbb="" aria-hidden="true" class="svg-icon icon-file-wps" style="width: 100%; height: 100%;" width="1024" height="1024"><defs><symbol class="icon" viewBox="0 0 1024 1024" id="icon-file-wps"><path d="M967.111 281.6v628.622c0 62.578-51.2 113.778-113.778 113.778H170.667c-62.578 0-113.778-51.2-113.778-113.778V113.778C56.889 51.2 108.089 0 170.667 0H685.51l281.6 281.6z" fill="#4F6BF6"></path><path d="M581.262 755.627h59.364l98.93-316.587H680.22z" fill="#FFFFFF"></path><path d="M685.511 224.711V0l281.6 281.6H742.4c-31.289 0-56.889-25.6-56.889-56.889" fill="#243EBB"></path><path d="M640.626 755.627h-59.364l-98.93-277.02h59.336zm-197.888 0h-59.364l-98.93-316.587h59.336z" fill="#FFFFFF"></path><path d="M383.374 755.627h59.364l98.93-277.02h-59.336z" fill="#FFFFFF"></path></symbol></defs><g><path d="M967.111 281.6v628.622c0 62.578-51.2 113.778-113.778 113.778H170.667c-62.578 0-113.778-51.2-113.778-113.778V113.778C56.889 51.2 108.089 0 170.667 0H685.51l281.6 281.6z" fill="#4F6BF6"></path><path d="M581.262 755.627h59.364l98.93-316.587H680.22z" fill="#FFFFFF"></path><path d="M685.511 224.711V0l281.6 281.6H742.4c-31.289 0-56.889-25.6-56.889-56.889" fill="#243EBB"></path><path d="M640.626 755.627h-59.364l-98.93-277.02h59.336zm-197.888 0h-59.364l-98.93-316.587h59.336z" fill="#FFFFFF"></path><path d="M383.374 755.627h59.364l98.93-277.02h-59.336z" fill="#FFFFFF"></path></g></svg>