<svg xmlns:xlink="http://www.w3.org/1999/xlink" xmlns="http://www.w3.org/2000/svg" data-v-a850baf3="" data-v-840b4794="" data-v-8df4fd43="" aria-hidden="true" class="svg-icon icon-file-dir" style="width: 100%; height: 100%;" width="1024" height="1024"><defs><symbol class="icon" viewBox="0 0 1024 1024" id="icon-file-dir"><path d="M0 139.636a46.545 46.545 0 0 1 46.545-46.545h354.898a51.2 51.2 0 0 1 47.057 31.034l25.1 58.554 503.855.012A46.545 46.545 0 0 1 1024 229.236v546.91a46.545 46.545 0 0 1-46.545 46.545H46.545A46.545 46.545 0 0 1 0 776.145V139.636z" fill="#FFA000"></path><path d="M46.545 276.945h930.91q46.545 0 46.545 46.546v558.545q0 46.546-46.545 46.546H46.545Q0 928.582 0 882.036V323.491q0-46.546 46.545-46.546Z" fill="#FFCA28"></path></symbol></defs><g><path d="M0 139.636a46.545 46.545 0 0 1 46.545-46.545h354.898a51.2 51.2 0 0 1 47.057 31.034l25.1 58.554 503.855.012A46.545 46.545 0 0 1 1024 229.236v546.91a46.545 46.545 0 0 1-46.545 46.545H46.545A46.545 46.545 0 0 1 0 776.145V139.636z" fill="#FFA000"></path><path d="M46.545 276.945h930.91q46.545 0 46.545 46.546v558.545q0 46.546-46.545 46.546H46.545Q0 928.582 0 882.036V323.491q0-46.546 46.545-46.546Z" fill="#FFCA28"></path></g></svg>