<svg xmlns="http://www.w3.org/2000/svg" xmlns:xlink="http://www.w3.org/1999/xlink" viewBox="0 0 24 24" width="24" height="24" preserveAspectRatio="xMidYMid meet" style="width: 100%; height: 100%; transform: translate3d(0px, 0px, 0px); content-visibility: visible;"><defs><clipPath id="__lottie_element_46"><rect width="24" height="24" x="0" y="0"></rect></clipPath><clipPath id="__lottie_element_48"><path d="M0,0 L600,0 L600,600 L0,600z"></path></clipPath></defs><g clip-path="url(#__lottie_element_46)"><g clip-path="url(#__lottie_element_48)" transform="matrix(0.03999999910593033,0,0,0.03999999910593033,0,0)" opacity="1" style="display: block;"><g transform="matrix(25,0,0,25,300,300)" opacity="1" style="display: block;"><g opacity="1" transform="matrix(1,0,0,1,0,0)"><path fill="oklab(0.787067 -0.00258079 -0.0110391)" fill-opacity="1" d=" M-7,10 C-8.104999542236328,10 -9,9.104999542236328 -9,8 C-9,8 -9,2.5 -9,2.5 C-9,2.2239999771118164 -8.776000022888184,2 -8.5,2 C-8.5,2 -1.5,2 -1.5,2 C-1.2239999771118164,2 -1,2.2239999771118164 -1,2.5 C-1,2.5 -1,9.5 -1,9.5 C-1,9.776000022888184 -1.2239999771118164,10 -1.5,10 C-1.5,10 -7,10 -7,10z M1,9.5 C1,9.776000022888184 1.2239999771118164,10 1.5,10 C1.5,10 7,10 7,10 C8.104999542236328,10 9,9.104999542236328 9,8 C9,8 9,2.5 9,2.5 C9,2.2239999771118164 8.776000022888184,2 8.5,2 C8.5,2 1.5,2 1.5,2 C1.2239999771118164,2 1,2.2239999771118164 1,2.5 C1,2.5 1,9.5 1,9.5z"></path></g></g><g transform="matrix(25,0,0,25,300,300)" opacity="1" style="display: block;"><g opacity="1" transform="matrix(1,0,0,1,0,0)"><path fill="oklab(0.787067 -0.00258079 -0.0110391)" fill-opacity="1" d=" M-10,-2 C-10,-3.1050000190734863 -9.104999542236328,-4 -8,-4 C-8,-4 8,-4 8,-4 C9.104999542236328,-4 10,-3.1050000190734863 10,-2 C10,-2 10,-0.5 10,-0.5 C10,-0.2240000069141388 9.776000022888184,0 9.5,0 C9.5,0 -9.5,0 -9.5,0 C-9.776000022888184,0 -10,-0.2240000069141388 -10,-0.5 C-10,-0.5 -10,-2 -10,-2z"></path></g></g><g transform="matrix(25,0,0,25,300,300)" opacity="1" style="display: block;"><path stroke-linecap="butt" stroke-linejoin="round" fill-opacity="0" stroke="oklab(0.787067 -0.00258079 -0.0110391)" stroke-opacity="1" stroke-width="2px" d=" M7,-6 C7,-7.6570000648498535 5.6570000648498535,-9 4,-9 C4,-9 3.9110000133514404,-9 3.9110000133514404,-9 C2.49399995803833,-9 1.2589999437332153,-8.03600025177002 0.9150000214576721,-6.660999774932861 C0.9150000214576721,-6.660999774932861 0,-3 0,-3 C0,-3 4,-3 4,-3 C5.6570000648498535,-3 7,-4.3429999351501465 7,-6 C7,-6 7,-6 7,-6z"></path><g opacity="1" transform="matrix(1,0,0,1,0,0)"></g></g><g transform="matrix(25,0,0,25,300,300)" opacity="1" style="display: block;"><path stroke-linecap="butt" stroke-linejoin="round" fill-opacity="0" stroke="oklab(0.787067 -0.00258079 -0.0110391)" stroke-opacity="1" stroke-width="2px" d=" M-7,-6 C-7,-7.6570000648498535 -5.6570000648498535,-9 -4,-9 C-4,-9 -3.9110000133514404,-9 -3.9110000133514404,-9 C-2.49399995803833,-9 -1.2589999437332153,-8.03600025177002 -0.9150000214576721,-6.660999774932861 C-0.9150000214576721,-6.660999774932861 0,-3 0,-3 C0,-3 -4,-3 -4,-3 C-5.6570000648498535,-3 -7,-4.3429999351501465 -7,-6 C-7,-6 -7,-6 -7,-6z"></path><g opacity="1" transform="matrix(1,0,0,1,0,0)"></g></g></g></g></svg>