<svg xmlns:xlink="http://www.w3.org/1999/xlink" xmlns="http://www.w3.org/2000/svg" data-v-a850baf3="" data-v-b95c7ff5="" aria-hidden="true" class="svg-icon icon-file-image" style="width: 28px; height: 28px;" width="1024" height="1024"><defs><symbol class="icon" viewBox="0 0 1024 1024" id="icon-file-image"><path d="M952.889 281.6v628.622c0 62.862-50.916 113.778-113.778 113.778H156.444c-62.862 0-113.777-50.916-113.777-113.778V113.778C42.667 50.916 93.582 0 156.444 0H671.29l281.6 281.6z" fill="#85BCFF"></path><path d="M676.665 167.822V0l281.6 281.6H790.443c-62.863 0-113.778-50.916-113.778-113.778" fill="#529EE0"></path><path d="M685.824 363.804a53.76 53.76 0 0 1 53.732 53.732v307.03a53.76 53.76 0 0 1-53.732 53.73H309.76a53.732 53.732 0 0 1-53.732-53.76V417.565c0-29.667 24.036-53.731 53.732-53.731h376.036zM612.921 513.48 474.738 660.025l-80.583-62.805-92.132 94.208v31.402c0 11.549 10.325 20.907 23.04 20.907h345.401c12.715 0 23.04-9.387 23.04-20.907V597.22l-80.583-83.74zm-227.897-85.532a32.085 32.085 0 1 0 0 64.142 32.085 32.085 0 0 0 0-64.142z" fill="#FFFFFF"></path></symbol></defs><g><path d="M952.889 281.6v628.622c0 62.862-50.916 113.778-113.778 113.778H156.444c-62.862 0-113.777-50.916-113.777-113.778V113.778C42.667 50.916 93.582 0 156.444 0H671.29l281.6 281.6z" fill="#85BCFF"></path><path d="M676.665 167.822V0l281.6 281.6H790.443c-62.863 0-113.778-50.916-113.778-113.778" fill="#529EE0"></path><path d="M685.824 363.804a53.76 53.76 0 0 1 53.732 53.732v307.03a53.76 53.76 0 0 1-53.732 53.73H309.76a53.732 53.732 0 0 1-53.732-53.76V417.565c0-29.667 24.036-53.731 53.732-53.731h376.036zM612.921 513.48 474.738 660.025l-80.583-62.805-92.132 94.208v31.402c0 11.549 10.325 20.907 23.04 20.907h345.401c12.715 0 23.04-9.387 23.04-20.907V597.22l-80.583-83.74zm-227.897-85.532a32.085 32.085 0 1 0 0 64.142 32.085 32.085 0 0 0 0-64.142z" fill="#FFFFFF"></path></g></svg>