<?xml version="1.0" standalone="no"?><!DOCTYPE svg PUBLIC "-//W3C//DTD SVG 1.1//EN" "http://www.w3.org/Graphics/SVG/1.1/DTD/svg11.dtd"><svg height="1024" node-id="1" sillyvg="true" template-height="1024" template-width="1024" version="1.1" viewBox="0 0 1024 1024" width="1024" xmlns="http://www.w3.org/2000/svg" xmlns:xlink="http://www.w3.org/1999/xlink"><defs node-id="276"><clipPath id="master_svg0_4_82" node-id="3"><path d="M 0.00 0.00 L 1024.00 0.00 L 1024.00 1024.00 L 0.00 1024.00 Z" fill="#000000" fill-rule="nonzero" node-id="279" stroke="none" target-height="1024" target-width="1024" target-x="0" target-y="0"></path></clipPath></defs><g node-id="956"><g clip-path="url(#master_svg0_4_82)" group-id="1" id="sillyvg_g_1" node-id="285"><path d="M 103.40 178.30 L 329.70 178.30 C 341.03 178.28 350.22 187.47 350.20 198.80 L 350.20 372.30 C 350.22 383.63 341.03 392.82 329.70 392.80 L 103.40 392.80 C 92.07 392.82 82.88 383.63 82.90 372.30 L 82.90 198.80 C 82.84 187.46 92.06 178.24 103.40 178.30 Z" fill="#3541df" fill-rule="nonzero" group-id="1,2" node-id="289" stroke="none" target-height="214.57751" target-width="267.37747" target-x="82.844246" target-y="178.24423"></path><path d="M 330.70 388.40 L 108.20 388.40 C 104.69 388.61 101.17 388.20 97.80 387.20 C 90.60 384.20 87.80 377.20 87.80 370.10 L 87.80 203.00 C 87.80 199.00 87.60 195.20 89.40 191.40 C 90.73 188.62 92.80 186.26 95.40 184.60 C 96.64 183.86 97.99 183.32 99.40 183.00 C 100.00 182.80 100.40 182.80 101.00 182.60 C 101.40 182.60 104.00 182.40 102.40 182.40 L 328.30 182.40 C 337.53 182.17 345.19 189.47 345.40 198.70 L 345.40 199.10 C 345.60 207.50 345.40 216.00 345.40 224.60 L 345.40 371.90 C 345.66 380.63 338.73 387.88 330.00 388.00 L 329.40 388.00 C 326.79 388.27 324.76 390.38 324.60 393.00 C 324.80 395.80 327.40 396.80 329.80 396.80 C 343.75 396.38 354.90 385.06 355.10 371.10 L 355.10 198.00 C 354.73 184.66 343.94 173.96 330.60 173.70 L 105.70 173.70 C 96.70 173.70 88.40 176.70 82.80 184.10 C 78.80 189.70 77.80 195.70 77.80 202.20 L 77.80 370.50 C 77.47 378.95 81.37 387.01 88.20 392.00 C 96.60 398.00 107.50 396.60 117.10 396.60 L 328.50 396.60 C 331.07 396.80 333.46 395.24 334.30 392.80 C 334.76 390.65 333.43 388.53 331.30 388.00 C 331.30 388.40 330.90 388.40 330.70 388.40 Z" fill="#3541df" fill-rule="nonzero" group-id="1,3" node-id="294" stroke="none" target-height="224.3" target-width="277.63452" target-x="77.46558" target-y="173.7"></path><path d="M 106.80 249.40 L 115.20 249.40 L 115.20 256.00 L 106.80 256.00 Z" fill="#ffffff" fill-rule="nonzero" group-id="1,4" node-id="299" stroke="none" target-height="6.600006" target-width="8.399994" target-x="106.8" target-y="249.4"></path><path d="M 135.90 249.20 L 205.70 249.20 L 205.70 255.80 L 135.90 255.80 Z" fill="#ffffff" fill-rule="nonzero" group-id="1,5" node-id="304" stroke="none" target-height="6.600006" target-width="69.8" target-x="135.9" target-y="249.20001"></path><path d="M 226.70 248.60 L 248.20 248.60 L 248.20 255.20 L 226.70 255.20 Z" fill="#111111" fill-rule="nonzero" group-id="1,6" node-id="309" stroke="none" target-height="6.600006" target-width="21.499985" target-x="226.7" target-y="248.6"></path><path d="M 264.61 249.36 L 302.70 248.64 L 302.83 255.23 L 264.73 255.96 Z" fill="#ffffff" fill-rule="nonzero" group-id="1,7" node-id="314" stroke="none" target-height="7.323578" target-width="38.21866" target-x="264.60883" target-y="248.63538"></path><path d="M 106.80 268.80 L 115.20 268.80 L 115.20 275.40 L 106.80 275.40 Z" fill="#ffffff" fill-rule="nonzero" group-id="1,8" node-id="319" stroke="none" target-height="6.600006" target-width="8.399994" target-x="106.8" target-y="268.8"></path><path d="M 136.10 268.60 L 179.80 268.60 L 179.80 275.20 L 136.10 275.20 Z" fill="#111111" fill-rule="nonzero" group-id="1,9" node-id="324" stroke="none" target-height="6.600006" target-width="43.699997" target-x="136.1" target-y="268.6"></path><path d="M 192.70 268.00 L 206.30 268.00 L 206.30 274.60 L 192.70 274.60 Z" fill="#ffffff" fill-rule="nonzero" group-id="1,10" node-id="329" stroke="none" target-height="6.600006" target-width="13.599991" target-x="192.70001" target-y="268"></path><path d="M 216.60 268.62 L 269.19 267.75 L 269.30 274.35 L 216.71 275.22 Z" fill="#ffffff" fill-rule="nonzero" group-id="1,11" node-id="334" stroke="none" target-height="7.4711914" target-width="52.702225" target-x="216.5966" target-y="267.74896"></path><path d="M 106.80 289.50 L 115.20 289.50 L 115.20 296.10 L 106.80 296.10 Z" fill="#ffffff" fill-rule="nonzero" group-id="1,12" node-id="339" stroke="none" target-height="6.600006" target-width="8.399994" target-x="106.8" target-y="289.5"></path><path d="M 136.10 289.30 L 183.00 289.30 L 183.00 295.90 L 136.10 295.90 Z" fill="#ffffff" fill-rule="nonzero" group-id="1,13" node-id="344" stroke="none" target-height="6.600006" target-width="46.899994" target-x="136.1" target-y="289.3"></path><path d="M 196.90 288.70 L 211.50 288.70 L 211.50 295.30 L 196.90 295.30 Z" fill="#111111" fill-rule="nonzero" group-id="1,14" node-id="349" stroke="none" target-height="6.600006" target-width="14.599976" target-x="196.90001" target-y="288.7"></path><path d="M 222.60 289.28 L 248.29 288.56 L 248.47 295.16 L 222.78 295.88 Z" fill="#ffffff" fill-rule="nonzero" group-id="1,15" node-id="354" stroke="none" target-height="7.315033" target-width="25.874252" target-x="222.60031" target-y="288.56192"></path><path d="M 107.00 308.90 L 115.40 308.90 L 115.40 315.50 L 107.00 315.50 Z" fill="#ffffff" fill-rule="nonzero" group-id="1,16" node-id="359" stroke="none" target-height="6.600006" target-width="8.399994" target-x="107" target-y="308.9"></path><path d="M 136.10 308.70 L 190.30 308.70 L 190.30 315.30 L 136.10 315.30 Z" fill="#111111" fill-rule="nonzero" group-id="1,17" node-id="364" stroke="none" target-height="6.600006" target-width="54.199997" target-x="136.1" target-y="308.7"></path><path d="M 206.50 308.10 L 223.20 308.10 L 223.20 314.70 L 206.50 314.70 Z" fill="#ffffff" fill-rule="nonzero" group-id="1,18" node-id="369" stroke="none" target-height="6.600006" target-width="16.699997" target-x="206.5" target-y="308.1"></path><path d="M 186.50 341.00 L 194.90 341.00 L 194.90 347.60 L 186.50 347.60 Z" fill="#ffffff" fill-rule="nonzero" group-id="1,19" node-id="374" stroke="none" target-height="6.600006" target-width="8.399994" target-x="186.5" target-y="341"></path><path d="M 215.80 341.00 L 262.70 341.00 L 262.70 347.60 L 215.80 347.60 Z" fill="#111111" fill-rule="nonzero" group-id="1,20" node-id="379" stroke="none" target-height="6.600006" target-width="46.899994" target-x="215.80002" target-y="341"></path><path d="M 276.60 340.20 L 291.20 340.20 L 291.20 346.80 L 276.60 346.80 Z" fill="#ffffff" fill-rule="nonzero" group-id="1,21" node-id="384" stroke="none" target-height="6.600006" target-width="14.600006" target-x="276.6" target-y="340.2"></path><path d="M 302.29 340.87 L 327.98 340.16 L 328.16 346.75 L 302.47 347.47 Z" fill="#ffffff" fill-rule="nonzero" group-id="1,22" node-id="389" stroke="none" target-height="7.315033" target-width="25.874268" target-x="302.28973" target-y="340.1567"></path><path d="M 186.50 360.30 L 194.90 360.30 L 194.90 366.90 L 186.50 366.90 Z" fill="#ffffff" fill-rule="nonzero" group-id="1,23" node-id="394" stroke="none" target-height="6.600006" target-width="8.399994" target-x="186.5" target-y="360.29996"></path><path d="M 215.90 360.30 L 270.10 360.30 L 270.10 366.90 L 215.90 366.90 Z" fill="#ffffff" fill-rule="nonzero" group-id="1,24" node-id="399" stroke="none" target-height="6.600006" target-width="54.200012" target-x="215.9" target-y="360.29996"></path><path d="M 286.30 359.50 L 303.00 359.50 L 303.00 366.10 L 286.30 366.10 Z" fill="#111111" fill-rule="nonzero" group-id="1,25" node-id="404" stroke="none" target-height="6.600006" target-width="16.700012" target-x="286.3" target-y="359.49997"></path><path d="M 116.80 206.40 L 105.80 215.80 C 104.80 216.60 104.80 217.20 105.60 218.00 C 109.01 222.35 113.39 225.85 118.40 228.20 C 120.54 229.38 123.09 229.60 125.40 228.80 C 126.00 228.60 127.00 228.20 127.00 227.40 C 127.00 226.60 126.20 226.00 125.60 225.60 C 124.40 225.00 123.40 224.40 122.20 223.80 L 121.40 223.20 C 120.87 222.80 120.73 222.73 121.00 223.00 C 120.40 222.60 120.00 222.20 119.40 221.80 C 117.41 220.21 115.59 218.39 114.00 216.40 L 113.80 218.60 L 124.80 209.20 C 125.40 208.80 125.80 208.20 125.40 207.60 C 124.91 206.80 124.12 206.22 123.20 206.00 C 121.97 205.61 120.69 205.40 119.40 205.40 C 118.49 205.62 117.62 205.96 116.80 206.40 Z" fill="#111111" fill-rule="nonzero" group-id="1,26" node-id="409" stroke="none" target-height="24.201797" target-width="22.200012" target-x="104.8" target-y="205.39998"></path><path d="M 145.70 204.40 C 140.90 212.29 136.88 220.63 133.70 229.30 C 133.29 231.11 134.33 232.93 136.10 233.50 C 136.50 233.50 136.70 233.70 137.10 233.70 C 139.67 233.94 142.10 232.48 143.10 230.10 C 144.70 226.10 146.30 221.90 148.10 218.10 L 148.50 217.10 C 148.70 216.50 149.10 216.10 149.30 215.50 C 149.70 214.50 150.30 213.70 150.70 212.70 C 151.70 210.70 152.90 208.90 154.10 206.90 C 155.17 205.41 154.81 203.34 153.30 202.30 C 152.90 202.10 152.70 201.90 152.30 201.90 C 149.80 201.41 147.24 202.38 145.70 204.40 Z" fill="#111111" fill-rule="nonzero" group-id="1,27" node-id="414" stroke="none" target-height="32.53102" target-width="21.883957" target-x="133.2901" target-y="201.40579"></path><path d="M 158.80 211.40 L 163.80 215.60 L 166.20 217.80 C 166.60 218.20 168.00 219.00 168.20 219.60 C 168.20 219.80 167.60 220.40 167.40 220.60 L 166.40 222.00 L 164.40 224.60 L 160.20 229.80 C 158.80 231.60 161.80 231.00 162.60 230.80 C 164.89 230.27 166.97 229.09 168.60 227.40 L 173.00 221.80 L 175.20 219.00 C 175.80 218.20 177.00 217.20 177.20 216.20 C 177.40 215.20 176.40 214.60 175.60 214.00 L 172.60 211.60 L 167.00 207.00 C 166.60 206.60 165.00 207.00 164.60 207.20 C 163.33 207.56 162.12 208.10 161.00 208.80 C 160.40 208.60 157.60 210.20 158.80 211.40 Z" fill="#111111" fill-rule="nonzero" group-id="1,28" node-id="419" stroke="none" target-height="24.999954" target-width="19.799942" target-x="157.6" target-y="206.6"></path><path d="M 332.10 194.80 C 332.10 195.75 331.72 196.67 331.05 197.35 C 330.37 198.02 329.45 198.40 328.50 198.40 C 327.55 198.40 326.63 198.02 325.95 197.35 C 325.28 196.67 324.90 195.75 324.90 194.80 C 324.90 193.85 325.28 192.93 325.95 192.25 C 326.63 191.58 327.55 191.20 328.50 191.20 C 329.45 191.20 330.37 191.58 331.05 192.25 C 331.72 192.93 332.10 193.85 332.10 194.80 Z" fill="#111111" fill-rule="nonzero" group-id="1,29" node-id="424" stroke="none" target-height="7.199997" target-width="7.200012" target-x="324.9" target-y="191.2"></path><path d="M 327.30 195.60 C 327.33 196.08 327.26 196.55 327.10 197.00 L 327.30 196.20 C 327.15 196.50 326.95 196.77 326.70 197.00 L 327.30 196.20 L 326.70 196.80 L 327.50 196.20 C 327.30 196.40 327.10 196.40 326.90 196.60 L 327.90 196.00 C 327.70 196.00 327.70 196.20 327.50 196.20 L 328.70 195.80 L 328.10 196.00 L 329.30 195.80 L 328.90 195.80 L 330.10 195.60 L 331.10 195.60 C 330.82 195.63 330.53 195.56 330.30 195.40 L 331.10 195.60 C 330.70 195.40 330.50 195.40 330.10 195.20 L 330.70 195.60 C 330.30 195.20 329.90 195.00 329.70 194.40 L 330.10 195.00 C 329.87 194.49 329.74 193.95 329.70 193.40 L 329.70 194.20 C 329.67 193.66 329.74 193.12 329.90 192.60 L 329.70 193.40 C 329.90 193.00 329.90 192.80 330.10 192.60 L 329.50 193.40 L 330.10 192.80 L 329.30 193.60 L 329.90 193.20 L 328.90 193.80 L 329.30 193.60 L 328.10 194.00 C 328.30 194.00 328.50 193.80 328.70 193.80 L 327.50 194.00 L 327.90 194.00 L 326.70 194.20 L 327.30 194.20 L 326.30 194.00 C 326.58 193.97 326.87 194.04 327.10 194.20 L 326.30 194.00 C 326.70 194.20 326.90 194.20 327.30 194.40 L 326.70 194.00 C 327.18 194.25 327.54 194.68 327.70 195.20 L 327.30 194.60 C 327.55 195.10 327.69 195.64 327.70 196.20 L 327.70 195.20 L 327.30 195.60 C 327.10 195.80 327.30 196.20 327.50 196.60 C 327.66 196.96 327.94 197.24 328.30 197.40 C 329.33 197.76 330.44 197.83 331.50 197.60 C 332.80 197.43 334.03 196.95 335.10 196.20 L 335.90 195.40 C 336.36 194.99 336.64 194.41 336.70 193.80 C 336.73 193.19 336.66 192.58 336.50 192.00 C 336.27 191.45 336.01 190.91 335.70 190.40 C 335.50 190.00 335.10 189.80 334.90 189.60 C 334.45 189.15 333.90 188.81 333.30 188.60 C 332.35 188.21 331.33 188.01 330.30 188.00 C 329.08 188.00 327.86 188.21 326.70 188.60 C 325.54 188.93 324.46 189.47 323.50 190.20 C 323.05 190.47 322.65 190.81 322.30 191.20 L 321.90 191.60 C 320.96 192.52 320.33 193.71 320.10 195.00 C 320.07 195.61 320.13 196.22 320.30 196.80 C 320.44 197.39 320.72 197.93 321.10 198.40 C 321.26 198.76 321.54 199.04 321.90 199.20 C 322.35 199.65 322.90 199.99 323.50 200.20 C 325.16 200.83 326.96 200.97 328.70 200.60 C 329.30 200.40 330.10 200.40 330.70 200.20 C 331.70 199.80 332.50 199.40 333.50 199.00 L 334.10 198.60 C 334.50 198.20 334.90 198.00 335.30 197.60 C 336.29 196.56 336.92 195.23 337.10 193.80 C 337.25 193.46 337.17 193.06 336.90 192.80 C 336.74 192.44 336.46 192.16 336.10 192.00 C 335.10 191.54 333.95 191.47 332.90 191.80 C 331.60 191.97 330.37 192.45 329.30 193.20 L 328.50 193.80 C 327.84 194.18 327.39 194.84 327.30 195.60 Z" fill="#111111" fill-rule="nonzero" group-id="1,30" node-id="429" stroke="none" target-height="12.966507" target-width="17.185486" target-x="320.06744" target-y="187.99997"></path><path d="M 446.30 66.00 C 424.80 64.40 402.00 76.60 394.30 97.30 C 390.50 107.30 391.10 120.20 400.30 127.00 C 407.50 132.40 419.60 133.80 426.60 127.20 C 430.40 123.80 431.80 117.80 427.80 113.80 C 423.80 109.80 416.80 108.80 411.50 109.60 C 400.48 111.39 391.70 119.77 389.40 130.70 C 386.60 143.30 391.20 155.80 396.80 166.80 C 402.80 178.60 409.40 189.50 412.60 202.50 C 415.80 215.50 417.20 230.40 410.60 242.40 C 406.20 250.40 394.50 258.70 385.50 252.80 C 383.57 251.22 380.87 250.98 378.70 252.20 C 376.70 253.60 377.70 255.80 379.30 256.80 C 387.72 262.37 398.53 262.83 407.40 258.00 C 416.60 253.40 422.00 244.20 423.90 234.50 C 426.10 223.70 424.70 212.20 421.90 201.60 C 418.70 189.80 413.10 179.50 407.50 168.70 C 402.10 158.70 397.10 147.40 398.70 135.60 C 399.90 126.80 405.90 117.50 415.20 116.10 C 416.80 115.87 418.43 115.94 420.00 116.30 C 421.00 116.50 420.60 116.90 420.40 116.30 C 420.61 116.52 420.75 116.80 420.80 117.10 C 420.84 118.28 420.57 119.46 420.00 120.50 C 418.39 123.12 415.47 124.65 412.40 124.50 C 409.67 124.51 407.08 123.26 405.40 121.10 C 402.68 117.28 401.53 112.55 402.20 107.90 C 404.20 86.40 426.90 70.40 447.70 72.00 C 449.50 72.20 452.30 71.40 452.10 69.20 C 451.90 67.00 448.10 66.00 446.30 66.00 Z" fill="#3541df" fill-rule="nonzero" group-id="1,31" node-id="434" stroke="none" target-height="198.42883" target-width="75.599976" target-x="376.69995" target-y="64.399994"></path><path d="M 448.70 488.30 L 724.70 488.30 L 724.70 806.90 L 448.70 806.90 Z" fill="#ffffff" fill-rule="nonzero" group-id="1,32" node-id="439" stroke="none" target-height="318.60007" target-width="276" target-x="448.7" target-y="488.29996"></path><path d="M 448.70 807.70 L 724.70 807.70 C 725.33 807.77 725.87 807.23 725.80 806.60 L 725.80 488.30 C 725.87 487.67 725.33 487.13 724.70 487.20 L 448.70 487.20 C 448.07 487.13 447.53 487.67 447.60 488.30 L 447.60 806.90 C 447.60 807.30 448.30 807.70 448.70 807.70 Z M 723.70 805.60 L 449.80 805.60 L 449.80 489.30 L 723.70 489.30 L 723.70 805.60 Z" fill="#111111" fill-rule="nonzero" group-id="1,33" node-id="444" stroke="none" target-height="320.63455" target-width="278.33447" target-x="447.53278" target-y="487.13272"></path><path d="M 623.10 948.90 C 674.83 922.83 736.80 910.17 809.00 910.90 C 881.20 911.63 922.77 916.57 933.70 925.70 L 891.40 892.40 L 684.80 861.70 L 611.30 892.40 L 623.10 948.90 Z" fill="#3541df" fill-rule="nonzero" group-id="1,34" node-id="449" stroke="none" target-height="87.20001" target-width="322.40002" target-x="611.3" target-y="861.7"></path><path d="M 623.10 950.00 C 623.30 950.00 623.50 950.00 623.50 949.80 C 624.40 949.40 700.00 912.00 804.50 912.00 L 808.80 912.00 C 913.70 913.10 932.20 926.20 932.80 926.60 C 933.22 927.01 933.88 927.01 934.30 926.60 C 934.71 926.18 934.71 925.51 934.30 925.10 C 934.18 925.11 934.09 925.02 934.10 924.90 L 892.20 891.40 C 892.05 891.39 891.90 891.32 891.80 891.20 L 685.20 860.70 L 684.60 860.70 L 611.10 891.40 C 610.70 891.60 610.50 892.00 610.50 892.70 L 622.00 949.20 C 622.00 949.60 622.20 949.80 622.60 950.10 C 622.75 950.01 622.93 949.97 623.10 950.00 Z M 804.70 909.80 C 706.90 909.80 634.20 942.50 623.90 947.40 L 612.70 893.00 L 685.20 863.00 L 891.10 893.50 L 926.40 921.40 C 913.70 917.10 882.30 910.70 809.00 910.00 L 804.70 909.80 Z" fill="#111111" fill-rule="nonzero" group-id="1,35" node-id="454" stroke="none" target-height="89.400024" target-width="324.21002" target-x="610.50006" target-y="860.7"></path><path d="M 623.10 948.90 C 596.43 932.97 556.67 920.94 503.80 912.80 C 450.93 904.66 385.37 906.23 307.10 917.50 L 327.70 887.00 L 605.90 872.80 L 623.10 933.40 L 623.10 948.90 Z" fill="#3541df" fill-rule="nonzero" group-id="1,36" node-id="459" stroke="none" target-height="76.10004" target-width="316" target-x="307.09998" target-y="872.8"></path><path d="M 623.10 950.00 C 623.30 950.00 623.50 950.00 623.50 949.80 C 623.90 949.60 624.10 949.20 623.90 948.90 L 623.90 933.20 L 606.70 872.60 C 606.50 872.20 606.10 871.70 605.60 871.70 L 327.50 886.00 C 327.16 886.03 326.85 886.17 326.60 886.40 L 306.00 916.90 C 305.80 917.24 305.80 917.66 306.00 918.00 C 306.19 918.42 306.69 918.60 307.10 918.40 C 308.20 918.20 425.30 901.80 503.60 913.70 C 581.90 925.60 622.00 949.20 622.50 949.40 C 622.60 949.80 622.80 950.00 623.10 950.00 Z M 622.00 933.70 L 622.00 947.00 C 613.60 942.50 573.80 922.50 504.00 911.70 C 431.80 900.70 326.40 913.80 309.50 916.00 L 328.40 888.10 L 605.30 873.90 L 622.00 933.70 Z" fill="#111111" fill-rule="nonzero" group-id="1,37" node-id="464" stroke="none" target-height="78.29999" target-width="318.30273" target-x="305.79712" target-y="871.7"></path><path d="M 623.10 933.50 C 668.10 910.83 722.77 898.23 787.10 895.70 C 841.43 893.57 887.23 897.57 924.50 907.70 L 873.30 871.40 L 677.70 866.90 L 618.40 903.90 L 623.10 933.50 Z" fill="#3541df" fill-rule="nonzero" group-id="1,38" node-id="469" stroke="none" target-height="66.599976" target-width="306.09998" target-x="618.39996" target-y="866.9"></path><path d="M 623.10 934.50 L 623.50 934.50 C 624.10 934.10 691.90 900.50 787.10 896.70 C 867.70 893.50 923.60 908.50 924.20 908.50 C 924.73 908.70 925.31 908.43 925.50 907.90 C 925.69 907.43 925.52 906.89 925.10 906.60 L 873.70 870.50 C 873.54 870.35 873.32 870.27 873.10 870.30 L 677.50 865.80 C 677.28 865.77 677.06 865.85 676.90 866.00 L 617.60 903.00 C 617.18 903.19 617.00 903.69 617.20 904.10 L 621.90 933.80 C 621.90 934.20 622.10 934.40 622.50 934.70 C 622.60 934.50 622.80 934.50 623.10 934.50 Z M 809.60 893.90 C 802.30 893.90 794.80 894.10 787.20 894.30 C 698.80 897.70 633.90 927.00 624.00 931.70 L 619.70 904.20 L 678.20 867.90 L 873.00 872.40 L 919.40 905.30 C 883.32 897.57 846.50 893.75 809.60 893.90 Z" fill="#111111" fill-rule="nonzero" group-id="1,39" node-id="474" stroke="none" target-height="68.927795" target-width="308.6914" target-x="616.9956" target-y="865.7723"></path><path d="M 621.10 919.90 L 623.00 933.40 C 538.73 903.13 474.47 888.00 430.20 888.00 C 387.13 888.40 344.19 892.71 301.90 900.90 L 347.00 851.40 C 430.00 850.80 491.13 856.83 530.40 869.50 C 569.67 882.03 599.90 898.83 621.10 919.90 Z" fill="#3541df" fill-rule="nonzero" group-id="1,40" node-id="479" stroke="none" target-height="82.60004" target-width="321.09998" target-x="301.90002" target-y="850.8"></path><path d="M 623.10 934.50 C 623.32 934.53 623.54 934.45 623.70 934.30 C 623.97 934.00 624.11 933.60 624.10 933.20 L 622.20 919.70 C 622.20 919.50 622.00 919.30 622.00 919.10 C 621.80 918.90 589.30 886.90 530.90 867.90 C 472.50 848.90 348.40 849.80 347.10 849.80 C 346.77 849.87 346.47 850.00 346.20 850.20 L 301.10 899.90 C 300.84 900.28 300.77 900.76 300.90 901.20 C 301.09 901.62 301.59 901.80 302.00 901.60 C 302.60 901.40 364.60 888.70 430.10 888.70 C 495.60 888.70 621.40 933.60 622.70 934.10 C 622.80 934.30 622.80 934.50 623.10 934.50 Z M 620.00 920.40 L 621.50 931.80 C 606.20 926.40 491.70 886.90 430.00 886.90 C 372.80 886.90 318.20 896.60 304.70 899.20 L 347.30 852.30 C 355.70 852.30 473.50 852.30 530.00 870.10 C 585.40 887.90 617.00 917.30 620.00 920.40 Z" fill="#111111" fill-rule="nonzero" group-id="1,41" node-id="484" stroke="none" target-height="85.62793" target-width="323.34286" target-x="300.7675" target-y="848.9"></path><path d="M 621.10 919.90 C 698.23 870.90 802.43 861.67 933.70 892.20 L 777.40 769.70 C 709.93 751.90 649.90 755.47 597.30 780.40 L 621.10 919.90 Z" fill="#ffffff" fill-rule="nonzero" group-id="1,42" node-id="489" stroke="none" target-height="168.00049" target-width="336.40002" target-x="597.3" target-y="751.9"></path><path d="M 621.10 921.00 C 621.32 921.03 621.54 920.95 621.70 920.80 C 622.80 920.20 739.30 848.10 933.40 893.30 C 933.80 893.50 934.50 893.10 934.70 892.70 C 934.90 892.30 934.90 891.60 934.50 891.40 L 778.20 768.90 C 778.00 768.90 778.00 768.70 777.80 768.70 C 776.70 768.50 675.30 742.30 596.80 779.40 C 596.40 779.62 596.17 780.05 596.20 780.50 L 620.00 919.90 C 620.00 920.30 620.20 920.50 620.60 920.80 C 620.70 921.00 620.90 921.00 621.10 921.00 Z M 807.70 876.30 C 772.60 876.11 737.60 880.00 703.40 887.90 C 656.80 898.90 628.40 914.60 621.90 918.20 L 598.50 781.10 C 674.40 745.60 771.80 769.50 777.10 770.80 L 929.10 890.30 C 889.29 881.10 848.56 876.40 807.70 876.30 Z" fill="#111111" fill-rule="nonzero" group-id="1,43" node-id="494" stroke="none" target-height="178.72821" target-width="338.7345" target-x="596.16516" target-y="742.30005"></path><path d="M 621.10 919.90 C 568.38 897.78 512.68 883.59 455.80 877.80 C 396.33 872.07 340.49 876.31 288.30 890.50 L 388.30 749.70 C 464.23 751.57 533.87 761.81 597.20 780.40 L 621.10 919.90 Z" fill="#ffffff" fill-rule="nonzero" group-id="1,44" node-id="499" stroke="none" target-height="170.20001" target-width="332.8" target-x="288.3" target-y="749.7001"></path><path d="M 621.10 921.00 C 621.32 921.03 621.54 920.95 621.70 920.80 C 621.97 920.50 622.11 920.10 622.10 919.70 L 598.20 780.20 C 598.20 779.80 597.80 779.60 597.30 779.30 C 503.10 751.60 389.20 748.60 388.10 748.60 C 387.76 748.63 387.45 748.77 387.20 749.00 L 287.20 889.80 C 287.00 890.21 287.00 890.69 287.20 891.10 C 287.39 891.52 287.89 891.70 288.30 891.50 C 289.20 891.30 367.60 870.40 455.30 878.80 C 512.05 884.59 567.62 898.78 620.20 920.90 C 620.50 920.96 620.80 920.99 621.10 921.00 Z M 596.20 781.30 L 619.60 918.20 C 607.60 913.00 538.80 884.70 455.80 876.70 C 376.90 869.20 305.80 885.10 290.70 888.70 L 388.50 750.70 C 397.80 751.00 505.90 754.80 596.20 781.30 Z" fill="#111111" fill-rule="nonzero" group-id="1,45" node-id="504" stroke="none" target-height="172.42804" target-width="335.11108" target-x="286.9995" target-y="748.6"></path><path d="M 584.40 258.50 C 583.93 226.94 577.59 195.74 565.70 166.50 L 558.40 166.50 C 571.16 195.45 577.35 226.87 576.50 258.50 L 584.40 258.50 Z" fill="#ffffff" fill-rule="nonzero" group-id="1,46" node-id="509" stroke="none" target-height="92" target-width="26" target-x="558.4" target-y="166.5"></path><path d="M 576.40 259.50 L 584.40 259.50 C 585.03 259.57 585.57 259.03 585.50 258.40 C 585.05 226.71 578.71 195.37 566.80 166.00 C 566.58 165.60 566.15 165.37 565.70 165.40 L 558.40 165.40 C 558.06 165.43 557.75 165.57 557.50 165.80 C 557.30 166.14 557.30 166.56 557.50 166.90 C 557.70 167.30 576.40 210.50 575.30 258.50 C 575.30 258.70 575.50 259.10 575.50 259.40 C 576.00 259.30 576.20 259.50 576.40 259.50 Z M 583.30 257.40 L 577.50 257.40 C 578.10 214.40 563.30 175.50 560.10 167.50 L 565.00 167.50 C 576.42 196.13 582.62 226.58 583.30 257.40 Z" fill="#111111" fill-rule="nonzero" group-id="1,47" node-id="514" stroke="none" target-height="94.20213" target-width="28.268005" target-x="557.29926" target-y="165.36516"></path><path d="M 691.40 282.80 L 477.50 282.80 C 468.64 282.87 461.47 290.04 461.40 298.90 L 461.40 447.90 C 461.47 456.76 468.64 463.94 477.50 464.00 L 691.40 464.00 C 700.26 463.94 707.43 456.76 707.50 447.90 L 707.50 298.90 C 707.43 290.04 700.26 282.87 691.40 282.80 Z" fill="#ffffff" fill-rule="nonzero" group-id="1,48" node-id="519" stroke="none" target-height="181.20001" target-width="246.10007" target-x="461.4" target-y="282.8"></path><path d="M 477.30 465.30 L 691.20 465.30 C 700.70 465.30 708.40 457.60 708.40 448.10 L 708.40 299.10 C 708.40 289.60 700.70 281.90 691.20 281.90 L 477.30 281.90 C 467.80 281.90 460.10 289.60 460.10 299.10 L 460.10 448.30 C 460.22 457.72 467.88 465.29 477.30 465.30 Z M 691.40 283.80 C 699.70 283.76 706.45 290.50 706.40 298.80 L 706.40 447.80 C 706.45 456.10 699.70 462.84 691.40 462.80 L 477.50 462.80 C 469.20 462.84 462.46 456.10 462.50 447.80 L 462.50 298.70 C 462.46 290.40 469.20 283.66 477.50 283.70 L 691.40 283.80 Z" fill="#111111" fill-rule="nonzero" group-id="1,49" node-id="524" stroke="none" target-height="183.4" target-width="248.2999" target-x="460.1" target-y="281.89996"></path><path d="M 601.60 253.70 L 564.20 253.70 C 548.92 253.73 536.53 266.12 536.50 281.40 L 536.50 282.70 L 629.40 282.70 L 629.40 281.40 C 629.24 266.13 616.87 253.81 601.60 253.70 Z" fill="#3541df" fill-rule="nonzero" group-id="1,50" node-id="529" stroke="none" target-height="29.000015" target-width="92.900024" target-x="536.5" target-y="253.7"></path><path d="M 536.40 283.80 L 629.30 283.80 C 629.93 283.87 630.47 283.33 630.40 282.70 L 630.40 281.40 C 630.39 265.50 617.50 252.61 601.60 252.60 L 564.20 252.60 C 548.30 252.61 535.41 265.50 535.40 281.40 L 535.40 282.70 C 535.28 283.31 535.78 283.86 536.40 283.80 Z M 628.20 281.70 L 537.50 281.70 L 537.50 281.50 C 537.49 266.75 549.45 254.79 564.20 254.80 L 601.60 254.80 C 616.35 254.94 628.23 266.95 628.20 281.70 Z" fill="#111111" fill-rule="nonzero" group-id="1,51" node-id="534" stroke="none" target-height="31.267288" target-width="95.183105" target-x="535.2842" target-y="252.59999"></path><path d="M 663.00 320.00 L 505.60 320.00 C 496.74 320.07 489.57 327.24 489.50 336.10 L 489.50 395.90 C 489.57 404.76 496.74 411.93 505.60 412.00 L 663.00 412.00 C 671.87 411.93 679.04 404.76 679.10 395.90 L 679.10 336.10 C 679.16 327.19 671.92 319.94 663.00 320.00 Z" fill="#111111" fill-rule="nonzero" group-id="1,52" node-id="539" stroke="none" target-height="92.05585" target-width="189.65598" target-x="489.50003" target-y="319.94412"></path><path d="M 505.70 413.00 L 663.00 413.00 C 672.50 413.00 680.20 405.30 680.20 395.80 L 680.20 336.00 C 680.20 326.50 672.50 318.80 663.00 318.80 L 505.60 318.80 C 496.10 318.80 488.40 326.50 488.40 336.00 L 488.40 396.00 C 488.57 405.43 496.26 413.00 505.70 413.00 Z M 663.00 321.00 C 671.30 320.96 678.04 327.70 678.00 336.00 L 678.00 395.80 C 678.04 404.10 671.30 410.84 663.00 410.80 L 505.60 410.80 C 497.30 410.84 490.56 404.10 490.60 395.80 L 490.60 335.80 C 490.56 327.50 497.30 320.76 505.60 320.80 L 663.00 321.00 Z" fill="#111111" fill-rule="nonzero" group-id="1,53" node-id="544" stroke="none" target-height="94.20004" target-width="191.79999" target-x="488.39996" target-y="318.79996"></path><path d="M 519.90 366.00 C 519.85 374.01 526.29 380.54 534.30 380.60 C 542.31 380.65 548.84 374.21 548.90 366.20 C 548.95 358.19 542.51 351.66 534.50 351.60 C 532.65 351.63 530.82 352.00 529.10 352.70 L 532.10 363.90 L 522.40 357.90 C 520.70 360.25 519.82 363.10 519.90 366.00 Z" fill="#ffffff" fill-rule="nonzero" group-id="1,54" node-id="549" stroke="none" target-height="29.054504" target-width="29.132935" target-x="519.82166" target-y="351.59998"></path><path d="M 619.00 366.00 C 619.02 373.98 625.42 380.47 633.40 380.60 C 641.37 380.63 647.83 374.17 647.80 366.20 C 647.78 358.22 641.38 351.73 633.40 351.60 C 631.61 351.61 629.84 351.98 628.20 352.70 L 631.20 363.90 L 621.50 357.90 C 619.80 360.25 618.92 363.10 619.00 366.00 Z" fill="#ffffff" fill-rule="nonzero" group-id="1,55" node-id="554" stroke="none" target-height="29.033386" target-width="28.911865" target-x="618.92163" target-y="351.59998"></path><path d="M 552.50 440.60 L 616.10 440.60 C 623.57 440.63 629.63 434.57 629.60 427.10 L 629.60 408.60 L 539.00 408.60 L 539.00 427.00 C 538.96 434.49 545.01 440.58 552.50 440.60 Z" fill="#111111" fill-rule="nonzero" group-id="1,56" node-id="559" stroke="none" target-height="32.033417" target-width="90.67212" target-x="538.96124" target-y="408.59998"></path><path d="M 552.50 441.60 L 616.10 441.60 C 624.17 441.63 630.73 435.07 630.70 427.00 L 630.70 408.50 C 630.77 407.87 630.23 407.33 629.60 407.40 L 539.00 407.40 C 538.37 407.33 537.83 407.87 537.90 408.50 L 537.90 427.00 C 537.98 435.03 544.47 441.52 552.50 441.60 Z M 628.60 409.60 L 628.60 427.00 C 628.60 433.90 623.00 439.50 616.10 439.50 L 552.50 439.50 C 545.60 439.50 540.00 433.90 540.00 427.00 L 540.00 409.60 L 628.60 409.60 Z" fill="#111111" fill-rule="nonzero" group-id="1,57" node-id="564" stroke="none" target-height="34.295044" target-width="92.93451" target-x="537.83276" target-y="407.3328"></path><path d="M 574.30 167.30 C 574.30 174.20 568.70 179.80 561.80 179.80 C 554.90 179.80 549.30 174.20 549.30 167.30 C 549.30 160.40 554.90 154.80 561.80 154.80 C 568.70 154.80 574.30 160.40 574.30 167.30 Z" fill="#3541df" fill-rule="nonzero" group-id="1,58" node-id="569" stroke="none" target-height="25" target-width="25" target-x="549.3" target-y="154.8"></path><path d="M 561.80 180.90 C 569.20 180.96 575.24 175.00 575.30 167.60 C 575.35 160.20 569.40 154.16 562.00 154.10 C 554.60 154.05 548.56 160.00 548.50 167.40 C 548.44 174.80 554.40 180.84 561.80 180.90 Z M 561.80 156.10 C 568.04 156.04 573.14 161.06 573.20 167.30 C 573.25 173.54 568.24 178.64 562.00 178.70 C 555.76 178.75 550.66 173.74 550.60 167.50 C 550.54 161.26 555.56 156.15 561.80 156.10 Z" fill="#111111" fill-rule="nonzero" group-id="1,59" node-id="574" stroke="none" target-height="26.909622" target-width="26.909973" target-x="548.4446" target-y="154.04543"></path><path d="M 559.40 464.00 L 609.30 464.00 L 609.30 488.10 L 559.40 488.10 Z" fill="#3541df" fill-rule="nonzero" group-id="1,60" node-id="579" stroke="none" target-height="24.100006" target-width="49.900024" target-x="559.4" target-y="464"></path><path d="M 559.40 489.30 L 609.30 489.30 C 609.93 489.37 610.47 488.83 610.40 488.20 L 610.40 464.10 C 610.47 463.47 609.93 462.93 609.30 463.00 L 559.40 463.00 C 558.77 462.93 558.23 463.47 558.30 464.10 L 558.30 488.20 C 558.34 488.79 558.81 489.26 559.40 489.30 Z M 608.20 487.20 L 560.50 487.20 L 560.50 465.30 L 608.20 465.30 L 608.20 487.20 Z" fill="#111111" fill-rule="nonzero" group-id="1,61" node-id="584" stroke="none" target-height="26.434479" target-width="52.23456" target-x="558.2328" target-y="462.9328"></path><path d="M 559.40 472.40 L 609.30 472.40 C 609.93 472.47 610.47 471.93 610.40 471.30 C 610.47 470.67 609.93 470.13 609.30 470.20 L 559.40 470.20 C 558.79 470.20 558.30 470.69 558.30 471.30 C 558.30 471.91 558.79 472.40 559.40 472.40 Z" fill="#111111" fill-rule="nonzero" group-id="1,62" node-id="589" stroke="none" target-height="2.3345032" target-width="52.167236" target-x="558.30005" target-y="470.13272"></path><path d="M 559.40 481.60 L 609.30 481.60 C 609.93 481.67 610.47 481.13 610.40 480.50 C 610.47 479.87 609.93 479.33 609.30 479.40 L 559.40 479.40 C 558.79 479.40 558.30 479.89 558.30 480.50 C 558.30 481.11 558.79 481.60 559.40 481.60 Z" fill="#111111" fill-rule="nonzero" group-id="1,63" node-id="594" stroke="none" target-height="2.3344727" target-width="52.167236" target-x="558.30005" target-y="479.33276"></path><path d="M 467.20 536.00 L 404.40 708.00 L 565.60 757.00 L 628.20 749.00 C 631.62 748.59 634.89 750.51 636.20 753.70 C 637.72 757.57 635.78 761.93 631.90 763.40 L 614.30 770.10 L 690.40 802.10 C 692.52 802.96 693.58 805.35 692.80 807.50 L 692.40 808.60 C 691.84 810.99 689.28 812.32 687.00 811.40 L 627.90 793.10 L 675.20 822.60 C 677.10 823.90 678.00 826.50 676.70 828.40 C 676.71 828.52 676.62 828.61 676.50 828.60 L 676.10 829.20 C 674.92 831.10 672.47 831.75 670.50 830.70 L 621.10 806.60 L 646.90 841.40 C 648.40 843.28 647.99 846.04 646.00 847.40 L 645.80 847.60 L 644.30 848.70 C 642.50 850.03 639.99 849.77 638.50 848.10 L 611.20 818.20 L 616.00 846.00 C 616.37 848.35 614.90 850.60 612.60 851.20 L 611.70 851.20 C 609.79 851.31 608.08 850.05 607.60 848.20 L 598.40 821.30 C 580.69 815.75 564.05 807.23 549.20 796.10 L 388.20 749.70 C 363.90 742.60 349.90 717.20 357.00 693.20 C 357.41 691.74 357.91 690.30 358.50 688.90 L 424.30 523.60 L 467.20 536.00 Z" fill="#ffffff" fill-rule="nonzero" group-id="1,64" node-id="599" stroke="none" target-height="327.708" target-width="343.68112" target-x="349.9" target-y="523.6"></path><path d="M 611.70 852.20 C 613.30 852.29 614.84 851.58 615.80 850.30 C 616.87 849.06 617.34 847.42 617.10 845.80 L 612.80 821.90 L 637.50 849.00 C 639.35 850.96 642.32 851.33 644.60 849.90 L 646.10 848.80 C 648.59 847.13 649.19 843.71 647.40 841.30 L 647.40 841.10 L 624.40 809.70 L 669.80 831.80 C 672.24 833.05 675.24 832.22 676.70 829.90 L 677.10 829.30 C 677.93 828.03 678.25 826.50 678.00 825.00 C 677.75 823.56 676.87 822.31 675.60 821.60 L 635.20 796.40 L 686.40 812.30 C 689.24 813.17 692.26 811.68 693.30 808.90 L 693.70 807.80 C 694.63 805.12 693.32 802.19 690.70 801.10 L 617.20 770.10 L 632.20 764.30 C 636.46 762.27 638.29 757.18 636.30 752.90 C 634.87 749.70 631.59 747.74 628.10 748.00 L 565.80 756.00 L 405.90 707.40 L 468.50 536.50 C 468.70 536.23 468.70 535.87 468.50 535.60 L 467.90 535.00 L 424.90 522.50 C 424.50 522.30 423.80 522.70 423.60 523.10 L 357.80 688.40 C 348.30 712.50 359.90 739.80 384.00 749.20 C 385.39 749.82 386.83 750.32 388.30 750.70 L 548.90 797.10 C 563.67 808.05 580.16 816.47 597.70 822.00 L 606.70 848.20 C 607.13 850.60 609.27 852.30 611.70 852.20 Z M 611.20 817.40 L 610.80 817.40 C 610.40 817.62 610.17 818.05 610.20 818.50 L 615.10 846.20 C 615.53 847.99 614.47 849.80 612.70 850.30 C 610.91 850.76 609.08 849.69 608.60 847.90 L 599.40 821.00 C 599.28 820.61 598.90 820.37 598.50 820.40 C 580.98 814.82 564.50 806.41 549.70 795.50 C 549.60 795.38 549.45 795.31 549.30 795.30 L 388.30 748.90 C 364.69 742.02 351.13 717.31 358.00 693.70 C 358.41 692.30 358.91 690.93 359.50 689.60 L 424.90 525.00 L 465.70 536.80 L 403.10 707.70 C 402.90 707.97 402.90 708.33 403.10 708.60 C 403.21 708.83 403.44 708.98 403.70 709.00 L 564.90 758.00 L 565.30 758.00 L 628.10 750.00 C 631.80 749.80 634.50 752.60 634.80 756.20 C 634.88 758.76 633.43 761.12 631.10 762.20 L 613.50 768.90 C 613.10 769.12 612.87 769.55 612.90 770.00 C 612.89 770.45 613.12 770.87 613.50 771.10 L 689.60 803.10 C 691.18 803.79 691.99 805.55 691.50 807.20 L 691.10 808.30 C 690.51 809.98 688.71 810.90 687.00 810.40 L 627.90 792.10 C 627.38 791.95 626.82 792.20 626.60 792.70 C 626.44 793.17 626.60 793.70 627.00 794.00 L 674.50 823.70 C 675.30 824.13 675.85 824.90 676.00 825.80 C 676.16 826.69 676.02 827.60 675.60 828.40 L 675.20 829.00 C 674.29 830.46 672.40 830.94 670.90 830.10 L 621.70 806.00 C 621.16 805.84 620.59 806.00 620.20 806.40 C 620.00 806.74 620.00 807.16 620.20 807.50 L 646.00 842.30 C 646.42 843.10 646.63 844.00 646.60 844.90 C 646.48 845.75 646.01 846.51 645.30 847.00 L 643.80 848.10 C 642.44 848.93 640.69 848.77 639.50 847.70 L 612.20 817.80 C 611.90 817.40 611.40 817.20 611.20 817.40 Z" fill="#111111" fill-rule="nonzero" group-id="1,65" node-id="604" stroke="none" target-height="330.00378" target-width="346.33148" target-x="348.3" target-y="522.3"></path><path d="M 415.00 715.50 C 415.00 734.28 399.78 749.50 381.00 749.50 C 362.22 749.50 347.00 734.28 347.00 715.50 C 347.00 696.72 362.22 681.50 381.00 681.50 C 399.78 681.50 415.00 696.72 415.00 715.50 Z" fill="#3541df" fill-rule="nonzero" group-id="1,66" node-id="609" stroke="none" target-height="68" target-width="68" target-x="347" target-y="681.5"></path><path d="M 381.00 750.50 C 400.33 750.50 416.00 734.83 416.00 715.50 C 416.00 696.17 400.33 680.50 381.00 680.50 C 361.67 680.50 346.00 696.17 346.00 715.50 C 346.00 734.83 361.67 750.50 381.00 750.50 Z M 381.00 682.40 C 399.17 682.40 413.90 697.13 413.90 715.30 C 413.90 733.47 399.17 748.20 381.00 748.20 C 362.83 748.20 348.10 733.47 348.10 715.30 C 348.08 697.12 362.82 682.38 381.00 682.40 Z" fill="#111111" fill-rule="nonzero" group-id="1,67" node-id="614" stroke="none" target-height="70" target-width="70" target-x="346" target-y="680.5"></path><path d="M 455.80 569.70 C 489.55 566.30 514.11 536.13 510.60 502.40 C 510.11 497.41 508.97 492.50 507.20 487.80 C 507.01 487.28 506.42 487.01 505.90 487.20 C 505.38 487.40 505.11 487.98 505.30 488.50 C 516.55 519.16 500.72 553.12 470.00 564.20 C 465.43 565.90 460.66 566.98 455.80 567.40 C 455.17 567.33 454.63 567.87 454.70 568.50 C 454.66 569.14 455.16 569.68 455.80 569.70 Z" fill="#111111" fill-rule="nonzero" group-id="1,68" node-id="619" stroke="none" target-height="82.690125" target-width="61.9205" target-x="454.63272" target-y="487.00995"></path><path d="M 721.10 570.40 L 725.00 570.40 C 725.59 570.36 726.06 569.89 726.10 569.30 C 726.17 568.67 725.63 568.13 725.00 568.20 L 721.10 568.20 C 679.94 568.31 651.34 527.27 665.70 488.70 C 665.89 488.18 665.62 487.59 665.10 487.40 C 664.58 487.21 663.99 487.48 663.80 488.00 C 652.17 519.81 668.50 555.03 700.30 566.70 C 706.96 569.16 714.00 570.42 721.10 570.40 Z" fill="#111111" fill-rule="nonzero" group-id="1,69" node-id="624" stroke="none" target-height="83.21103" target-width="74.82532" target-x="651.342" target-y="487.20676"></path><path d="M 441.40 784.10 L 530.00 802.60 C 537.12 804.05 544.18 799.85 546.30 792.90 L 557.00 758.10 C 559.13 751.16 555.67 743.74 549.00 740.90 L 465.40 706.30 C 458.28 703.29 450.06 706.66 447.10 713.80 C 446.88 714.20 446.74 714.64 446.70 715.10 L 431.00 766.30 C 428.65 773.70 432.78 781.60 440.20 783.90 C 440.50 783.90 441.00 784.10 441.40 784.10 Z" fill="#3541df" fill-rule="nonzero" group-id="1,70" node-id="629" stroke="none" target-height="100.759705" target-width="130.47067" target-x="428.65475" target-y="703.29083"></path><path d="M 532.80 803.80 C 539.45 803.84 545.32 799.48 547.20 793.10 L 557.90 758.30 C 560.31 750.83 556.56 742.77 549.30 739.80 L 465.70 705.20 C 457.97 701.97 449.08 705.65 445.90 713.40 C 445.68 713.80 445.54 714.24 445.50 714.70 L 429.80 765.90 C 427.16 773.93 431.76 782.53 439.90 784.80 C 440.30 785.00 440.80 785.00 441.20 785.20 L 529.80 803.70 C 530.80 803.80 531.90 803.80 532.80 803.80 Z M 459.90 706.20 C 461.59 706.21 463.27 706.58 464.80 707.30 L 548.40 741.90 C 554.62 744.48 557.86 751.36 555.90 757.80 L 545.20 792.60 C 543.31 799.04 536.74 802.89 530.20 801.40 L 441.60 782.90 C 434.51 781.57 429.93 774.64 431.50 767.60 C 431.54 767.14 431.68 766.70 431.90 766.30 L 447.80 715.10 C 449.46 709.81 454.36 706.21 459.90 706.20 Z" fill="#111111" fill-rule="nonzero" group-id="1,71" node-id="634" stroke="none" target-height="101.87268" target-width="133.15082" target-x="427.1635" target-y="701.97046"></path><path d="M 574.50 523.50 L 594.30 523.50 C 602.08 523.52 609.07 518.75 611.90 511.50 L 621.10 488.10 L 547.60 488.10 L 556.80 511.50 C 559.65 518.78 566.69 523.55 574.50 523.50 Z" fill="#111111" fill-rule="nonzero" group-id="1,72" node-id="639" stroke="none" target-height="35.446045" target-width="73.5" target-x="547.6" target-y="488.09998"></path><path d="M 574.50 524.60 L 594.30 524.60 C 602.56 524.65 610.00 519.60 613.00 511.90 L 622.20 488.50 C 622.40 487.98 622.13 487.39 621.60 487.20 L 547.70 487.20 C 547.07 487.13 546.53 487.67 546.60 488.30 L 546.60 488.70 L 555.80 512.10 C 558.88 519.71 566.29 524.67 574.50 524.60 Z M 619.60 489.30 L 610.80 511.20 C 608.23 518.10 601.56 522.60 594.20 522.40 L 574.40 522.40 C 567.10 522.41 560.53 517.97 557.80 511.20 L 549.20 489.30 L 619.60 489.30 Z" fill="#111111" fill-rule="nonzero" group-id="1,73" node-id="644" stroke="none" target-height="37.5325" target-width="75.868164" target-x="546.5328" target-y="487.13278"></path><path d="M 530.40 700.00 L 643.30 700.00 C 650.44 699.93 656.51 694.74 657.70 687.70 L 669.70 611.80 C 671.01 603.89 665.62 596.44 657.70 595.20 C 656.91 595.03 656.10 594.97 655.30 595.00 L 518.20 595.00 C 510.13 594.97 503.57 601.53 503.60 609.60 C 503.57 610.41 503.63 611.21 503.80 612.00 L 515.80 687.90 C 517.14 694.91 523.26 699.99 530.40 700.00 Z" fill="#3541df" fill-rule="nonzero" group-id="1,74" node-id="649" stroke="none" target-height="105.032715" target-width="167.44077" target-x="503.5671" target-y="594.9671"></path><path d="M 530.40 701.10 L 643.30 701.10 C 650.96 701.08 657.50 695.55 658.80 688.00 L 670.80 611.90 C 672.18 603.35 666.28 595.33 657.70 594.10 C 656.91 593.93 656.10 593.87 655.30 593.90 L 518.20 593.90 C 509.59 593.86 502.57 600.79 502.50 609.40 C 502.47 610.27 502.53 611.14 502.70 612.00 L 514.70 687.90 C 516.11 695.49 522.68 701.02 530.40 701.10 Z M 655.30 596.00 C 662.77 595.97 668.83 602.03 668.80 609.50 C 668.83 610.21 668.77 610.91 668.60 611.60 L 656.60 687.50 C 655.49 694.01 649.90 698.80 643.30 698.90 L 530.40 698.90 C 523.73 698.98 518.04 694.10 517.10 687.50 L 505.10 611.60 C 504.04 604.26 508.99 597.39 516.30 596.10 C 516.99 595.92 517.69 595.86 518.40 595.90 L 655.30 595.90 L 655.30 596.00 Z" fill="#111111" fill-rule="nonzero" group-id="1,75" node-id="654" stroke="none" target-height="107.24432" target-width="169.71182" target-x="502.467" target-y="593.85565"></path><path d="M 795.90 382.90 L 798.30 378.00 L 803.00 345.50 C 803.34 343.33 802.41 341.15 800.60 339.90 C 797.97 338.02 794.32 338.60 792.40 341.20 L 781.70 356.20 L 795.90 382.90 Z" fill="#ffffff" fill-rule="nonzero" group-id="1,76" node-id="659" stroke="none" target-height="44.882813" target-width="21.641052" target-x="781.69995" target-y="338.0172"></path><path d="M 795.90 384.00 C 796.30 384.00 796.80 383.80 796.80 383.40 L 799.20 378.50 L 799.20 378.30 L 803.90 345.80 C 804.54 342.04 801.89 338.52 798.10 338.10 C 795.51 337.65 792.90 338.74 791.40 340.90 L 780.70 355.90 C 780.50 356.24 780.50 356.66 780.70 357.00 L 794.90 383.70 C 795.20 383.89 795.55 383.99 795.90 384.00 Z M 797.20 377.80 L 795.90 380.60 L 783.00 356.50 L 793.30 341.90 C 794.87 339.79 797.84 339.30 800.00 340.80 C 801.41 341.84 802.14 343.56 801.90 345.30 L 797.20 377.80 Z" fill="#111111" fill-rule="nonzero" group-id="1,77" node-id="664" stroke="none" target-height="46.34729" target-width="24.041504" target-x="780.49713" target-y="337.6527"></path><path d="M 735.90 500.10 L 853.50 518.80 L 770.10 415.60 C 758.50 405.60 750.53 395.87 746.20 386.40 C 742.49 378.67 740.03 370.40 738.90 361.90 L 706.90 341.30 C 704.99 340.06 704.40 337.55 705.55 335.59 C 706.71 333.63 709.20 332.93 711.20 334.00 L 745.40 351.60 L 723.30 331.80 C 721.55 330.22 721.46 327.50 723.10 325.80 L 723.30 325.60 L 723.50 325.40 C 725.09 323.84 727.61 323.76 729.30 325.20 L 756.00 347.30 L 740.10 327.70 C 738.56 325.89 738.83 323.17 740.70 321.70 C 741.18 321.36 741.68 321.06 742.20 320.80 L 742.60 320.80 C 744.06 320.39 745.64 320.81 746.70 321.90 L 770.10 343.40 L 758.30 326.60 C 756.97 324.63 757.46 321.97 759.40 320.60 C 760.17 320.08 761.07 319.77 762.00 319.70 L 762.40 319.70 C 763.55 319.64 764.66 320.12 765.40 321.00 L 776.60 332.40 C 786.76 342.76 793.77 355.80 796.80 370.00 L 800.70 387.60 L 905.50 518.20 C 912.49 526.94 913.36 539.09 907.67 548.73 C 901.98 558.37 890.93 563.49 879.90 561.60 L 734.40 536.20 L 735.90 500.10 Z" fill="#ffffff" fill-rule="nonzero" group-id="1,78" node-id="669" stroke="none" target-height="243.85349" target-width="208.95764" target-x="704.3996" target-y="319.63937"></path><path d="M 884.70 563.30 C 900.16 563.21 912.58 550.55 912.40 535.10 C 912.42 528.75 910.23 522.60 906.20 517.70 L 801.30 387.40 L 797.40 370.00 C 794.22 355.70 787.16 342.55 777.00 332.00 L 765.80 320.60 C 764.79 319.52 763.38 318.91 761.90 318.90 L 761.50 318.90 C 758.51 318.89 756.09 321.31 756.10 324.30 C 756.10 325.46 756.48 326.59 757.20 327.50 L 762.80 335.50 L 747.50 321.10 C 746.09 319.83 744.14 319.35 742.30 319.80 L 741.90 319.80 C 739.08 320.69 737.46 323.64 738.20 326.50 C 738.37 327.23 738.75 327.89 739.30 328.40 L 748.30 339.60 L 729.80 324.30 C 727.73 322.56 724.67 322.64 722.70 324.50 L 722.50 324.70 C 721.41 325.79 720.80 327.26 720.80 328.80 C 720.81 330.28 721.42 331.69 722.50 332.70 L 738.40 346.90 L 711.50 333.10 C 708.81 331.85 705.62 332.90 704.20 335.50 C 702.95 337.94 703.77 340.94 706.10 342.40 L 737.70 362.80 C 738.88 371.29 741.34 379.55 745.00 387.30 C 751.40 401.50 768.40 416.30 769.10 417.00 L 850.80 517.40 L 736.10 499.00 C 735.79 498.98 735.47 499.05 735.20 499.20 C 734.90 499.40 734.80 499.60 734.80 500.10 L 733.10 536.40 C 733.10 536.80 733.50 537.50 734.00 537.50 L 879.70 562.90 C 881.36 563.12 883.03 563.26 884.70 563.30 Z M 762.10 321.00 C 763.02 321.02 763.88 321.42 764.50 322.10 L 775.70 333.50 C 785.61 343.78 792.52 356.58 795.70 370.50 L 799.60 388.10 C 799.60 388.30 799.80 388.30 799.80 388.50 L 904.90 519.00 C 911.62 527.38 912.47 539.04 907.03 548.30 C 901.59 557.56 890.99 562.50 880.40 560.70 L 735.70 535.50 L 737.20 501.30 L 853.50 519.80 C 853.90 519.79 854.29 519.65 854.60 519.40 C 854.80 518.99 854.80 518.51 854.60 518.10 L 771.20 415.00 C 771.00 414.80 753.80 399.70 747.30 386.00 C 743.57 378.42 741.10 370.28 740.00 361.90 C 739.97 361.56 739.83 361.25 739.60 361.00 L 707.60 340.40 C 706.06 339.47 705.50 337.51 706.30 335.90 C 707.17 334.28 709.20 333.70 710.80 334.60 L 745.20 352.20 C 745.74 352.38 746.33 352.23 746.70 351.80 C 746.83 351.36 746.76 350.88 746.50 350.50 L 724.40 330.70 C 723.74 330.07 723.35 329.21 723.30 328.30 C 723.32 327.38 723.72 326.52 724.40 325.90 L 724.60 325.70 C 725.77 324.54 727.63 324.46 728.90 325.50 L 755.80 347.60 C 756.21 348.01 756.88 348.01 757.30 347.60 C 757.71 347.18 757.71 346.51 757.30 346.10 L 741.40 326.50 C 740.76 325.64 740.54 324.54 740.80 323.50 C 741.01 322.44 741.84 321.61 742.90 321.40 L 743.30 321.20 C 744.34 320.96 745.43 321.17 746.30 321.80 L 769.50 343.70 C 769.92 344.10 770.58 344.10 771.00 343.70 C 771.36 343.28 771.44 342.70 771.20 342.20 L 759.40 325.40 C 758.71 324.42 758.62 323.14 759.17 322.07 C 759.71 321.00 760.80 320.32 762.00 320.30 L 762.10 321.00 Z" fill="#111111" fill-rule="nonzero" group-id="1,79" node-id="674" stroke="none" target-height="244.41113" target-width="209.6333" target-x="702.9502" target-y="318.88885"></path><path d="M 484.80 514.70 C 484.80 534.64 468.64 550.80 448.70 550.80 C 428.76 550.80 412.60 534.64 412.60 514.70 C 412.60 505.13 416.40 495.94 423.17 489.17 C 429.94 482.40 439.13 478.60 448.70 478.60 C 458.27 478.60 467.46 482.40 474.23 489.17 C 481.00 495.94 484.80 505.13 484.80 514.70 Z" fill="#3541df" fill-rule="nonzero" group-id="1,80" node-id="679" stroke="none" target-height="72.20001" target-width="72.19998" target-x="412.6" target-y="478.59998"></path><path d="M 448.70 551.90 C 469.25 551.90 485.90 535.25 485.90 514.70 C 485.90 494.16 469.25 477.50 448.70 477.50 C 428.16 477.50 411.50 494.16 411.50 514.70 C 411.46 535.26 428.14 551.94 448.70 551.90 Z M 448.70 479.70 C 468.03 479.70 483.70 495.37 483.70 514.70 C 483.70 534.03 468.03 549.70 448.70 549.70 C 429.37 549.70 413.70 534.03 413.70 514.70 C 413.70 495.37 429.37 479.70 448.70 479.70 Z" fill="#111111" fill-rule="nonzero" group-id="1,81" node-id="684" stroke="none" target-height="74.43884" target-width="74.43884" target-x="411.4612" target-y="477.5"></path><path d="M 756.10 514.70 C 756.10 534.64 739.94 550.80 720.00 550.80 C 700.06 550.80 683.90 534.64 683.90 514.70 C 683.90 494.76 700.06 478.60 720.00 478.60 C 739.94 478.60 756.10 494.76 756.10 514.70 Z" fill="#3541df" fill-rule="nonzero" group-id="1,82" node-id="689" stroke="none" target-height="72.20001" target-width="72.19995" target-x="683.9001" target-y="478.59998"></path><path d="M 720.00 551.90 C 740.54 551.90 757.20 535.25 757.20 514.70 C 757.20 494.16 740.54 477.50 720.00 477.50 C 699.46 477.50 682.80 494.16 682.80 514.70 C 682.76 535.26 699.44 551.94 720.00 551.90 Z M 720.00 479.70 C 739.33 479.70 755.00 495.37 755.00 514.70 C 755.00 534.03 739.33 549.70 720.00 549.70 C 700.67 549.70 685.00 534.03 685.00 514.70 C 685.00 495.37 700.67 479.70 720.00 479.70 Z" fill="#111111" fill-rule="nonzero" group-id="1,83" node-id="694" stroke="none" target-height="74.43884" target-width="74.43872" target-x="682.76117" target-y="477.5"></path><path d="M 914.60 532.10 C 914.60 550.88 899.38 566.10 880.60 566.10 C 861.82 566.10 846.60 550.88 846.60 532.10 C 846.60 513.32 861.82 498.10 880.60 498.10 C 899.38 498.10 914.60 513.32 914.60 532.10 Z" fill="#3541df" fill-rule="nonzero" group-id="1,84" node-id="699" stroke="none" target-height="68" target-width="67.99994" target-x="846.6" target-y="498.09998"></path><path d="M 880.60 567.20 C 899.97 567.12 915.63 551.37 915.60 532.00 C 915.57 512.63 899.87 496.93 880.50 496.90 C 861.13 496.87 845.38 512.53 845.30 531.90 C 845.26 551.41 861.09 567.24 880.60 567.20 Z M 880.60 499.20 C 898.80 499.26 913.52 514.03 913.50 532.23 C 913.48 550.43 898.73 565.18 880.53 565.20 C 862.33 565.22 847.56 550.50 847.50 532.30 C 847.39 513.98 862.28 499.09 880.60 499.20 Z" fill="#111111" fill-rule="nonzero" group-id="1,85" node-id="704" stroke="none" target-height="70.36603" target-width="70.36609" target-x="845.2612" target-y="496.87274"></path><path d="M 870.00 451.30 L 814.10 392.80 C 809.58 388.13 802.28 387.57 797.10 391.50 L 771.50 411.70 C 766.40 415.75 765.19 423.01 768.70 428.50 L 812.60 496.40 C 816.39 502.21 824.17 503.86 830.00 500.10 C 830.32 499.92 830.62 499.72 830.90 499.50 L 868.50 469.80 C 873.92 465.51 874.86 457.65 870.60 452.20 C 870.70 451.70 870.30 451.50 870.00 451.30 Z" fill="#3541df" fill-rule="nonzero" group-id="1,86" node-id="709" stroke="none" target-height="116.29465" target-width="109.670715" target-x="765.1884" target-y="387.57028"></path><path d="M 823.40 503.10 C 826.46 503.07 829.41 502.01 831.80 500.10 L 869.40 470.40 C 875.31 465.77 876.38 457.24 871.80 451.30 C 871.60 450.90 871.20 450.70 870.90 450.20 L 815.00 391.70 C 810.16 386.59 802.21 386.02 796.70 390.40 L 771.10 410.60 C 765.51 414.91 764.20 422.81 768.10 428.70 L 812.00 496.70 C 814.08 499.91 817.42 502.09 821.20 502.70 C 821.88 503.04 822.64 503.18 823.40 503.10 Z M 869.40 451.90 C 873.78 456.51 873.61 463.81 869.00 468.20 C 868.72 468.42 868.41 468.62 868.10 468.80 L 830.50 498.50 C 825.52 502.38 818.34 501.53 814.40 496.60 C 814.18 496.32 813.98 496.02 813.80 495.70 L 769.90 427.80 C 766.70 422.79 767.83 416.17 772.50 412.50 L 798.00 392.40 C 802.68 388.71 809.39 389.19 813.50 393.50 L 869.40 451.90 Z" fill="#111111" fill-rule="nonzero" group-id="1,87" node-id="714" stroke="none" target-height="117.15372" target-width="112.182434" target-x="764.2015" target-y="386.02448"></path><path d="M 584.40 875.00 C 584.80 875.00 585.30 874.80 585.30 874.40 C 585.46 873.86 585.30 873.29 584.90 872.90 C 583.80 872.50 472.70 821.70 360.50 839.20 C 359.92 839.34 359.56 839.91 359.66 840.49 C 359.77 841.07 360.31 841.47 360.90 841.40 C 472.50 824.20 583.00 874.50 584.00 874.90 C 584.10 875.00 584.10 875.00 584.40 875.00 Z" fill="#111111" fill-rule="nonzero" group-id="1,88" node-id="719" stroke="none" target-height="53.30005" target-width="225.90082" target-x="359.5572" target-y="821.7"></path><path d="M 580.90 848.80 C 581.53 848.87 582.07 848.33 582.00 847.70 C 582.00 847.30 581.80 847.10 581.40 846.80 C 475.20 790.90 374.40 811.10 373.30 811.30 C 372.70 811.50 372.20 811.90 372.40 812.60 C 372.60 813.30 373.00 813.70 373.70 813.50 C 374.80 813.30 474.70 793.50 580.30 848.80 L 580.90 848.80 Z" fill="#111111" fill-rule="nonzero" group-id="1,89" node-id="724" stroke="none" target-height="57.967224" target-width="209.86722" target-x="372.20004" target-y="790.9"></path><path d="M 636.40 879.50 L 636.80 879.50 C 637.70 879.10 726.40 835.00 836.50 852.20 C 837.13 852.35 837.75 851.95 837.87 851.31 C 837.98 850.68 837.54 850.08 836.90 850.00 C 726.20 832.80 636.80 877.10 635.90 877.50 C 635.32 877.76 635.13 878.49 635.50 879.00 C 635.67 879.33 636.03 879.53 636.40 879.50 Z" fill="#111111" fill-rule="nonzero" group-id="1,90" node-id="729" stroke="none" target-height="46.72705" target-width="202.85583" target-x="635.12714" target-y="832.7999"></path><path d="M 692.70 835.90 L 692.90 835.90 C 751.40 821.90 808.10 829.20 808.80 829.20 C 809.43 829.35 810.05 828.95 810.17 828.31 C 810.28 827.68 809.84 827.08 809.20 827.00 C 808.60 827.00 751.40 819.70 692.70 833.70 C 692.12 833.85 691.74 834.40 691.80 835.00 C 691.75 835.51 692.19 835.95 692.70 835.90 Z" fill="#111111" fill-rule="nonzero" group-id="1,91" node-id="734" stroke="none" target-height="16.245667" target-width="118.54126" target-x="691.7408" target-y="819.7"></path><path d="M 119.20 665.80 L 119.20 787.90 C 119.14 804.44 132.56 817.86 149.10 817.80 L 233.40 817.80 C 249.94 817.86 263.36 804.44 263.30 787.90 L 263.30 665.80 L 119.20 665.80 Z" fill="#ffffff" fill-rule="nonzero" group-id="1,92" node-id="739" stroke="none" target-height="152.06104" target-width="144.222" target-x="119.13878" target-y="665.8"></path><path d="M 149.30 818.90 L 233.60 818.90 C 250.72 818.90 264.60 805.02 264.60 787.90 L 264.60 665.80 C 264.67 665.17 264.13 664.63 263.50 664.70 L 119.30 664.70 C 118.67 664.63 118.13 665.17 118.20 665.80 L 118.20 787.90 C 118.10 804.90 132.10 818.70 149.30 818.90 Z M 262.30 666.90 L 262.30 787.90 C 262.29 803.80 249.40 816.69 233.50 816.70 L 149.20 816.70 C 133.30 816.69 120.41 803.80 120.40 787.90 L 120.40 666.90 L 262.30 666.90 Z" fill="#6b6765" fill-rule="nonzero" group-id="1,93" node-id="744" stroke="none" target-height="154.26752" target-width="146.56726" target-x="118.1" target-y="664.63275"></path><path d="M 119.20 665.80 C 119.20 668.20 124.60 670.30 133.80 672.20 C 141.77 673.65 149.82 674.66 157.90 675.20 C 160.50 675.40 163.30 675.60 166.10 675.60 C 168.90 675.60 172.30 675.80 175.80 676.00 C 179.70 676.20 183.80 676.20 188.10 676.20 L 192.00 676.20 C 202.50 676.20 212.40 676.00 221.50 675.30 L 223.00 675.30 C 231.60 674.70 239.10 673.80 245.60 672.90 C 257.20 671.00 264.30 668.60 264.30 665.80 C 264.30 663.70 259.40 661.50 251.00 659.80 C 243.77 658.36 236.45 657.36 229.10 656.80 C 227.80 656.60 226.50 656.60 225.00 656.40 C 217.90 656.00 210.20 655.50 202.00 655.30 L 187.90 655.30 C 184.50 655.30 181.20 655.30 178.00 655.50 L 173.30 655.70 C 171.80 655.70 170.30 655.90 168.80 655.90 L 159.30 656.50 C 157.20 656.70 155.20 656.70 153.10 656.90 C 148.60 657.30 144.50 657.80 140.60 658.40 C 135.28 659.08 130.03 660.22 124.90 661.80 C 121.10 663.00 119.20 664.30 119.20 665.80 Z" fill="#ffffff" fill-rule="nonzero" group-id="1,94" node-id="749" stroke="none" target-height="20.900024" target-width="145.09999" target-x="119.2" target-y="655.30005"></path><path d="M 191.60 677.40 C 201.90 677.40 211.80 677.20 221.10 676.50 L 222.80 676.50 C 231.40 675.90 239.10 675.00 245.40 674.10 C 265.20 670.90 265.20 667.20 265.20 665.90 C 265.20 664.00 263.70 661.40 251.00 658.80 C 243.70 657.35 236.32 656.34 228.90 655.80 C 228.00 655.80 227.00 655.60 226.10 655.60 L 225.00 655.60 C 217.50 655.00 210.00 654.70 202.00 654.50 L 187.60 654.50 C 184.20 654.50 180.90 654.50 177.70 654.70 L 173.00 654.90 C 171.50 654.90 170.00 655.10 168.50 655.10 L 159.00 655.70 C 156.90 655.90 154.70 655.90 152.80 656.10 C 148.50 656.50 144.40 657.00 140.30 657.60 C 134.92 658.21 129.60 659.28 124.40 660.80 C 120.30 662.30 118.40 663.80 118.40 665.70 C 118.40 667.60 119.90 670.40 133.90 673.20 C 141.87 674.64 149.92 675.64 158.00 676.20 C 160.60 676.40 163.40 676.60 166.20 676.60 C 169.00 676.60 172.40 676.80 175.90 677.00 C 180.20 677.20 184.30 677.20 188.20 677.20 L 191.60 677.40 Z M 192.50 656.40 L 201.50 656.40 C 209.50 656.60 217.20 656.80 224.50 657.50 L 225.60 657.50 L 228.40 657.70 C 235.70 658.30 243.00 659.40 250.30 660.70 C 260.20 662.60 262.80 664.80 262.80 665.60 C 262.80 666.40 258.90 669.50 245.00 671.60 C 237.59 672.83 230.11 673.63 222.60 674.00 L 220.90 674.20 C 211.70 674.80 201.80 675.10 191.40 675.10 L 187.50 675.10 C 183.60 675.10 179.50 675.10 175.20 674.90 C 172.00 674.70 168.80 674.70 165.50 674.50 C 162.70 674.30 160.10 674.30 157.50 674.10 C 149.48 673.54 141.50 672.54 133.60 671.10 C 122.90 669.00 119.80 666.80 119.80 665.70 C 119.80 665.50 119.80 664.40 124.30 662.70 C 129.36 661.11 134.54 659.97 139.80 659.30 C 143.90 658.70 148.00 658.20 152.30 657.80 C 154.36 657.56 156.43 657.43 158.50 657.40 C 161.50 657.20 164.70 657.00 168.00 656.80 C 169.50 656.80 171.00 656.60 172.50 656.60 L 177.20 656.40 C 180.40 656.40 183.60 656.20 187.10 656.20 L 192.50 656.40 Z" fill="#6b6765" fill-rule="nonzero" group-id="1,95" node-id="754" stroke="none" target-height="22.900024" target-width="146.79999" target-x="118.40002" target-y="654.5"></path><path d="M 175.50 676.20 C 179.40 676.40 183.50 676.40 187.80 676.40 L 191.70 676.40 C 202.90 676.40 213.40 676.00 222.90 675.30 L 224.80 656.40 L 237.00 535.60 L 190.40 530.90 L 177.70 655.40 L 175.50 676.20 Z" fill="#ffffff" fill-rule="nonzero" group-id="1,96" node-id="759" stroke="none" target-height="145.5" target-width="61.5" target-x="175.5" target-y="530.89996"></path><path d="M 191.60 677.40 C 202.60 677.40 213.10 677.00 222.80 676.30 C 223.36 676.20 223.80 675.76 223.90 675.20 L 238.00 535.60 C 238.02 535.29 237.95 534.97 237.80 534.70 C 237.69 534.47 237.46 534.32 237.20 534.30 L 190.60 529.60 C 190.05 529.54 189.55 529.95 189.50 530.50 L 174.70 675.60 C 174.68 675.91 174.75 676.23 174.90 676.50 C 175.12 676.77 175.45 676.92 175.80 676.90 C 180.10 677.10 184.20 677.10 188.10 677.10 L 191.60 677.40 Z M 221.70 674.20 C 212.20 674.80 202.10 675.10 191.60 675.10 L 187.70 675.10 C 184.30 675.10 180.40 675.10 176.70 674.90 L 191.30 531.90 L 235.80 536.40 L 221.70 674.20 Z" fill="#6b6765" fill-rule="nonzero" group-id="1,97" node-id="764" stroke="none" target-height="147.85858" target-width="63.341568" target-x="174.67923" target-y="529.5418"></path><path d="M 200.60 541.60 C 201.23 541.67 201.77 541.13 201.70 540.50 C 201.77 539.87 201.23 539.33 200.60 539.40 L 194.80 538.80 C 194.25 538.74 193.76 539.15 193.70 539.70 C 193.64 540.25 194.05 540.74 194.60 540.80 L 200.60 541.60 Z" fill="#6b6765" fill-rule="nonzero" group-id="1,98" node-id="769" stroke="none" target-height="2.9224243" target-width="8.122482" target-x="193.64478" target-y="538.7448"></path><path d="M 200.00 548.90 C 200.55 548.96 201.05 548.55 201.10 548.00 C 201.16 547.45 200.75 546.95 200.20 546.90 L 194.40 546.30 C 193.85 546.24 193.35 546.65 193.30 547.20 C 193.32 547.84 193.77 548.38 194.40 548.50 L 200.00 548.90 Z" fill="#6b6765" fill-rule="nonzero" group-id="1,99" node-id="774" stroke="none" target-height="2.7161255" target-width="7.8602295" target-x="193.29999" target-y="546.24194"></path><path d="M 199.10 556.20 C 199.65 556.26 200.15 555.85 200.20 555.30 C 200.19 554.72 199.84 554.21 199.30 554.00 L 193.50 553.40 C 192.92 553.41 192.41 553.76 192.20 554.30 C 192.00 554.70 192.60 555.40 193.10 555.60 L 199.10 556.20 Z" fill="#6b6765" fill-rule="nonzero" group-id="1,100" node-id="779" stroke="none" target-height="2.8580933" target-width="8.199997" target-x="192.00002" target-y="553.4"></path><path d="M 198.50 563.50 C 199.13 563.57 199.67 563.03 199.60 562.40 C 199.67 561.77 199.13 561.23 198.50 561.30 L 192.70 560.70 C 192.12 560.71 191.61 561.06 191.40 561.60 C 191.42 562.24 191.87 562.78 192.50 562.90 L 198.50 563.50 Z" fill="#6b6765" fill-rule="nonzero" group-id="1,101" node-id="784" stroke="none" target-height="2.8671875" target-width="8.267273" target-x="191.4" target-y="560.7001"></path><path d="M 203.00 571.30 C 203.63 571.37 204.17 570.83 204.10 570.20 C 204.17 569.57 203.63 569.03 203.00 569.10 L 192.00 568.00 C 191.45 567.94 190.95 568.35 190.90 568.90 C 190.92 569.54 191.37 570.08 192.00 570.20 L 203.00 571.30 Z" fill="#6b6765" fill-rule="nonzero" group-id="1,102" node-id="789" stroke="none" target-height="3.425354" target-width="13.267303" target-x="190.9" target-y="567.9419"></path><path d="M 197.00 577.30 C 197.63 577.37 198.17 576.83 198.10 576.20 C 198.17 575.57 197.63 575.03 197.00 575.10 L 191.20 574.50 C 190.65 574.45 190.16 574.85 190.10 575.40 C 190.05 575.95 190.45 576.44 191.00 576.50 L 197.00 577.30 Z" fill="#6b6765" fill-rule="nonzero" group-id="1,103" node-id="794" stroke="none" target-height="2.9194946" target-width="8.117508" target-x="190.04974" target-y="574.44775"></path><path d="M 196.30 584.60 C 196.91 584.60 197.40 584.11 197.40 583.50 C 197.40 582.89 196.91 582.40 196.30 582.40 L 190.50 581.80 C 189.95 581.74 189.45 582.15 189.40 582.70 C 189.41 583.28 189.76 583.79 190.30 584.00 L 196.30 584.60 Z" fill="#6b6765" fill-rule="nonzero" group-id="1,104" node-id="799" stroke="none" target-height="2.8580933" target-width="8" target-x="189.40001" target-y="581.7419"></path><path d="M 195.70 591.90 C 196.33 591.97 196.87 591.43 196.80 590.80 C 196.87 590.17 196.33 589.63 195.70 589.70 L 189.90 589.10 C 189.32 589.11 188.81 589.46 188.60 590.00 C 188.40 590.40 189.00 591.10 189.50 591.30 L 195.70 591.90 Z" fill="#6b6765" fill-rule="nonzero" group-id="1,105" node-id="804" stroke="none" target-height="2.8671875" target-width="8.467285" target-x="188.39998" target-y="589.1001"></path><path d="M 200.00 599.60 C 200.63 599.67 201.17 599.13 201.10 598.50 C 201.16 597.95 200.75 597.45 200.20 597.40 L 189.20 596.30 C 188.62 596.31 188.11 596.66 187.90 597.20 C 187.92 597.84 188.37 598.38 189.00 598.50 L 200.00 599.60 Z" fill="#6b6765" fill-rule="nonzero" group-id="1,106" node-id="809" stroke="none" target-height="3.3671875" target-width="13.267181" target-x="187.90001" target-y="596.30005"></path><path d="M 194.20 605.60 C 194.81 605.60 195.30 605.11 195.30 604.50 C 195.30 603.89 194.81 603.40 194.20 603.40 L 188.40 602.80 C 187.85 602.74 187.35 603.15 187.30 603.70 C 187.24 604.25 187.65 604.75 188.20 604.80 L 194.20 605.60 Z" fill="#6b6765" fill-rule="nonzero" group-id="1,107" node-id="814" stroke="none" target-height="2.8580322" target-width="8.060272" target-x="187.23975" target-y="602.74194"></path><path d="M 193.50 613.00 C 194.13 613.07 194.67 612.53 194.60 611.90 C 194.67 611.27 194.13 610.73 193.50 610.80 L 187.70 610.20 C 187.12 610.21 186.61 610.56 186.40 611.10 C 186.42 611.74 186.87 612.28 187.50 612.40 L 193.30 613.00 L 193.50 613.00 Z" fill="#6b6765" fill-rule="nonzero" group-id="1,108" node-id="819" stroke="none" target-height="2.8671875" target-width="8.267258" target-x="186.4" target-y="610.2001"></path><path d="M 192.70 620.30 C 193.33 620.37 193.87 619.83 193.80 619.20 C 193.86 618.65 193.45 618.15 192.90 618.10 L 187.10 617.50 C 186.55 617.44 186.05 617.85 186.00 618.40 C 185.93 619.03 186.47 619.57 187.10 619.50 L 192.70 620.30 Z" fill="#6b6765" fill-rule="nonzero" group-id="1,109" node-id="824" stroke="none" target-height="2.925293" target-width="7.934494" target-x="185.93275" target-y="617.44196"></path><path d="M 197.20 628.00 C 197.83 628.07 198.37 627.53 198.30 626.90 C 198.36 626.35 197.95 625.85 197.40 625.80 L 186.40 624.70 C 185.77 624.63 185.23 625.17 185.30 625.80 C 185.24 626.35 185.65 626.85 186.20 626.90 L 197.20 628.00 Z" fill="#6b6765" fill-rule="nonzero" group-id="1,110" node-id="829" stroke="none" target-height="3.4344482" target-width="13.1345215" target-x="185.23276" target-y="624.6328"></path><path d="M 191.40 634.00 C 192.03 634.07 192.57 633.53 192.50 632.90 C 192.56 632.35 192.15 631.85 191.60 631.80 L 185.80 631.20 C 185.25 631.14 184.76 631.55 184.70 632.10 C 184.64 632.65 185.05 633.14 185.60 633.20 L 191.40 634.00 Z" fill="#6b6765" fill-rule="nonzero" group-id="1,111" node-id="834" stroke="none" target-height="2.9224243" target-width="7.9224854" target-x="184.64478" target-y="631.14484"></path><path d="M 190.50 641.30 C 191.13 641.37 191.67 640.83 191.60 640.20 C 191.60 639.50 191.20 639.10 190.70 639.10 L 184.90 638.50 C 184.35 638.45 183.86 638.85 183.80 639.40 C 183.75 639.95 184.15 640.44 184.70 640.50 L 190.50 641.30 Z" fill="#6b6765" fill-rule="nonzero" group-id="1,112" node-id="839" stroke="none" target-height="2.9195557" target-width="7.9174957" target-x="183.74977" target-y="638.4477"></path><path d="M 189.90 648.60 C 190.53 648.67 191.07 648.13 191.00 647.50 C 191.00 646.80 190.60 646.40 190.10 646.40 L 184.30 645.80 C 183.75 645.74 183.26 646.15 183.20 646.70 C 183.14 647.25 183.55 647.74 184.10 647.80 L 189.90 648.60 Z" fill="#6b6765" fill-rule="nonzero" group-id="1,113" node-id="844" stroke="none" target-height="2.9224243" target-width="7.92247" target-x="183.14478" target-y="645.7448"></path><path d="M 194.20 656.40 C 194.81 656.40 195.30 655.91 195.30 655.30 C 195.30 654.69 194.81 654.20 194.20 654.20 L 183.20 653.10 C 182.65 653.05 182.16 653.45 182.10 654.00 C 182.05 654.55 182.45 655.04 183.00 655.10 L 194.20 656.40 Z" fill="#6b6765" fill-rule="nonzero" group-id="1,114" node-id="849" stroke="none" target-height="3.352356" target-width="13.250275" target-x="182.04974" target-y="653.04767"></path><path d="M 188.40 662.40 C 189.03 662.47 189.57 661.93 189.50 661.30 C 189.56 660.75 189.15 660.25 188.60 660.20 L 182.80 659.60 C 182.22 659.61 181.71 659.96 181.50 660.50 C 181.52 661.14 181.97 661.68 182.60 661.80 L 188.40 662.40 Z" fill="#6b6765" fill-rule="nonzero" group-id="1,115" node-id="854" stroke="none" target-height="2.8671875" target-width="8.0672455" target-x="181.5" target-y="659.6001"></path><path d="M 187.70 669.70 C 188.31 669.70 188.80 669.21 188.80 668.60 C 188.80 667.99 188.31 667.50 187.70 667.50 L 181.90 666.90 C 181.35 666.84 180.85 667.25 180.80 667.80 C 180.73 668.43 181.27 668.97 181.90 668.90 L 187.70 669.70 Z" fill="#6b6765" fill-rule="nonzero" group-id="1,116" node-id="859" stroke="none" target-height="2.8580933" target-width="8.067276" target-x="180.73274" target-y="666.8419"></path><path d="M 186.90 677.00 C 187.53 677.07 188.07 676.53 188.00 675.90 C 188.00 675.20 187.60 674.80 187.10 674.80 L 181.30 674.20 C 180.75 674.15 180.26 674.55 180.20 675.10 C 180.15 675.65 180.55 676.14 181.10 676.20 L 186.90 677.00 Z" fill="#6b6765" fill-rule="nonzero" group-id="1,117" node-id="864" stroke="none" target-height="2.9195557" target-width="7.9174805" target-x="180.14977" target-y="674.1477"></path><path d="M 145.40 569.10 L 160.70 673.60 L 179.80 670.80 L 164.30 566.30 L 145.40 569.10 Z" fill="#ffffff" fill-rule="nonzero" group-id="1,118" node-id="869" stroke="none" target-height="107.29999" target-width="34.399994" target-x="145.4" target-y="566.3"></path><path d="M 143.00 552.50 L 145.10 566.90 L 164.20 564.10 L 162.10 549.70 C 161.18 544.49 156.36 540.89 151.10 541.50 C 148.57 541.85 146.31 543.27 144.90 545.40 C 143.26 547.37 142.56 549.97 143.00 552.50 Z" fill="#ffffff" fill-rule="nonzero" group-id="1,119" node-id="874" stroke="none" target-height="26.009583" target-width="21.639511" target-x="142.56049" target-y="540.8904"></path><path d="M 159.80 675.90 L 181.10 672.70 C 181.75 672.66 182.20 672.02 182.00 671.40 L 166.30 564.80 C 166.27 564.15 165.62 563.70 165.00 563.90 L 143.70 566.90 C 143.50 566.90 143.10 567.10 143.10 567.30 C 142.90 567.50 142.90 567.70 142.90 568.20 L 158.60 674.80 C 158.60 675.00 158.80 675.40 159.00 675.40 C 159.40 675.90 159.60 675.90 159.80 675.90 Z M 179.80 670.80 L 160.70 673.60 L 145.20 569.10 L 164.30 566.30 L 179.80 670.80 Z" fill="#6b6765" fill-rule="nonzero" group-id="1,120" node-id="879" stroke="none" target-height="112.19696" target-width="39.297104" target-x="142.9" target-y="563.7029"></path><path d="M 144.10 569.30 L 165.60 566.10 C 165.80 566.10 166.00 565.90 166.20 565.70 C 166.40 565.50 166.40 565.30 166.40 564.80 L 164.00 549.30 C 163.13 542.85 157.12 538.39 150.70 539.40 C 144.30 540.50 139.70 546.30 140.80 552.70 L 143.20 568.20 C 143.14 568.75 143.55 569.25 144.10 569.30 Z M 164.10 564.20 L 145.00 567.00 L 142.90 552.60 C 142.46 550.10 143.08 547.53 144.60 545.50 C 146.17 543.44 148.45 542.05 151.00 541.60 C 156.31 540.80 161.25 544.49 162.00 549.80 L 164.10 564.20 Z" fill="#6b6765" fill-rule="nonzero" group-id="1,121" node-id="884" stroke="none" target-height="30.912231" target-width="26.699997" target-x="139.7" target-y="538.3878"></path><path d="M 158.70 656.40 L 159.60 640.50 C 160.27 636.02 161.21 631.57 162.40 627.20 C 170.10 598.60 186.00 586.40 205.20 597.70 C 220.20 606.70 212.50 634.70 201.80 655.30 C 198.09 662.97 193.31 670.08 187.60 676.40 C 180.10 676.40 172.60 676.20 165.90 675.80 C 163.10 675.60 160.50 675.60 157.70 675.40 L 158.70 656.40 Z M 178.50 662.80 C 181.50 663.20 184.70 660.00 187.50 655.30 C 194.60 643.00 199.80 619.80 195.20 614.00 C 186.80 611.40 183.60 618.30 178.40 627.50 C 175.00 633.70 171.30 647.10 172.80 655.40 C 173.60 659.60 175.30 662.40 178.50 662.80 Z" fill="#3541df" fill-rule="nonzero" group-id="1,122" node-id="889" stroke="none" target-height="89.99994" target-width="62.5" target-x="157.70001" target-y="586.4"></path><path d="M 157.66 675.90 L 157.57 675.90 L 157.48 675.90 L 157.40 675.85 L 157.33 675.78 C 157.30 675.76 157.28 675.73 157.27 675.70 C 157.26 675.67 157.26 675.64 157.27 675.61 L 157.27 675.52 L 157.27 675.42 L 158.27 656.42 L 159.17 640.52 C 159.86 636.02 160.80 631.56 161.99 627.17 C 165.92 612.56 171.68 602.56 179.27 597.17 C 187.10 591.60 195.85 591.66 205.52 597.36 C 212.58 601.60 215.31 609.91 213.70 622.30 C 212.37 632.42 208.57 643.52 202.32 655.61 C 198.56 663.29 193.74 670.40 188.00 676.73 C 187.96 676.79 187.90 676.83 187.83 676.86 C 187.76 676.88 187.70 676.88 187.63 676.86 C 179.85 676.86 172.61 676.66 165.90 676.26 C 164.97 676.19 163.61 676.13 161.81 676.06 C 160.01 675.99 158.60 676.00 157.66 675.90 Z M 158.23 674.90 C 159.12 674.96 160.32 675.01 161.82 675.07 C 163.62 675.14 164.99 675.20 165.93 675.27 C 172.56 675.67 179.71 675.87 187.38 675.87 C 192.99 669.62 197.71 662.61 201.38 655.05 C 207.60 643.05 211.36 632.05 212.66 622.05 C 214.21 610.05 211.65 602.05 204.97 598.05 C 195.67 592.58 187.28 592.50 179.80 597.82 C 172.32 603.14 166.69 612.95 162.90 627.24 C 161.73 631.59 160.80 636.01 160.12 640.47 L 159.22 656.35 L 158.23 674.90 Z M 178.44 663.27 C 175.27 662.87 173.23 660.27 172.31 655.46 C 171.60 651.52 171.94 646.54 173.31 640.52 C 174.26 635.89 175.84 631.42 178.00 627.22 L 179.00 625.51 C 181.91 620.32 184.18 616.99 185.81 615.51 C 188.48 613.04 191.68 612.37 195.42 613.51 C 195.52 613.54 195.60 613.60 195.66 613.68 C 197.98 616.61 198.19 622.81 196.30 632.30 C 194.81 640.45 192.01 648.30 188.00 655.55 C 184.67 661.12 181.48 663.70 178.44 663.30 L 178.44 663.27 Z M 173.29 655.27 C 174.12 659.60 175.88 661.94 178.56 662.27 C 181.24 662.60 184.08 660.18 187.07 655.01 C 191.02 647.86 193.79 640.12 195.25 632.08 C 196.02 628.49 196.42 624.82 196.44 621.15 C 196.39 617.97 195.88 615.73 194.90 614.40 C 191.96 613.34 188.68 614.04 186.42 616.20 C 184.86 617.63 182.65 620.89 179.80 626.00 L 178.80 627.72 C 176.68 631.82 175.13 636.20 174.21 640.72 C 172.91 646.65 172.60 651.51 173.29 655.31 L 173.29 655.27 Z" fill="#3541df" fill-rule="evenodd" group-id="1,123" node-id="894" stroke="none" target-height="85.27832" target-width="58.04213" target-x="157.26456" target-y="591.5967"></path><path d="M 143.20 603.50 C 151.80 609.26 158.46 617.49 162.30 627.10 C 166.17 636.20 168.15 646.01 168.10 655.90 C 168.05 662.57 167.25 669.21 165.70 675.70 C 162.90 675.50 160.30 675.50 157.50 675.30 C 149.42 674.74 141.37 673.74 133.40 672.30 C 130.13 669.06 127.05 665.62 124.20 662.00 C 116.20 652.10 107.40 638.10 107.00 624.20 C 106.10 597.70 125.00 591.90 143.20 603.50 Z M 125.40 638.70 C 129.22 646.00 134.22 652.62 140.20 658.30 C 142.30 660.40 144.50 662.20 146.40 663.90 C 148.11 665.39 150.71 665.21 152.20 663.50 C 153.05 662.59 153.38 661.31 153.10 660.10 C 152.90 659.00 152.90 658.00 152.70 656.90 C 150.30 642.90 145.60 622.50 137.90 618.20 C 125.60 611.70 117.00 620.90 125.40 638.70 Z" fill="#3541df" fill-rule="nonzero" group-id="1,124" node-id="899" stroke="none" target-height="83.79999" target-width="62.04789" target-x="106.1" target-y="591.9"></path><path d="M 106.50 624.22 C 106.28 617.75 107.20 612.32 109.26 607.95 C 110.95 604.10 113.95 600.97 117.72 599.12 C 121.50 597.39 125.73 596.87 129.82 597.63 C 134.70 598.48 139.35 600.34 143.47 603.09 C 152.20 608.85 158.94 617.17 162.75 626.91 C 166.68 636.07 168.67 645.94 168.59 655.91 C 168.54 662.62 167.73 669.30 166.18 675.82 L 166.18 675.91 L 166.18 675.98 L 166.12 676.05 C 166.10 676.07 166.08 676.09 166.06 676.11 L 165.98 676.11 L 165.90 676.11 L 165.81 676.11 L 165.72 676.11 C 164.80 676.04 163.44 675.98 161.64 675.91 C 159.84 675.84 158.46 675.78 157.52 675.71 C 149.42 675.15 141.36 674.15 133.37 672.71 C 133.27 672.69 133.18 672.64 133.11 672.57 C 129.82 669.32 126.73 665.86 123.87 662.23 C 112.62 648.42 106.83 635.75 106.50 624.22 Z M 110.17 608.37 C 108.17 612.59 107.28 617.86 107.50 624.18 C 107.83 635.48 113.53 647.98 124.59 661.68 C 127.38 665.24 130.39 668.63 133.59 671.83 C 141.50 673.26 149.48 674.26 157.49 674.83 C 158.41 674.90 159.77 674.96 161.57 675.03 C 163.12 675.09 164.35 675.15 165.26 675.20 C 166.74 668.88 167.51 662.42 167.55 655.93 C 167.63 646.10 165.67 636.36 161.79 627.33 C 158.05 617.78 151.44 609.62 142.88 603.97 C 138.87 601.30 134.35 599.49 129.61 598.66 C 125.72 597.93 121.70 598.42 118.10 600.06 C 114.57 601.82 111.76 604.76 110.17 608.37 Z M 129.53 615.66 C 132.54 615.50 135.53 616.23 138.13 617.76 C 144.29 621.20 149.31 634.20 153.18 656.76 C 153.25 657.14 153.32 657.69 153.39 658.40 C 153.46 659.11 153.52 659.61 153.58 659.96 C 153.91 661.32 153.53 662.75 152.58 663.78 C 151.79 664.71 150.65 665.27 149.43 665.34 C 148.21 665.45 147.00 665.04 146.09 664.21 C 145.72 663.88 145.14 663.37 144.35 662.69 C 142.35 660.96 140.86 659.59 139.87 658.60 C 133.86 652.91 128.84 646.27 125.00 638.94 C 123.13 635.26 121.99 631.25 121.63 627.13 C 121.32 624.31 121.99 621.47 123.53 619.08 C 124.91 617.09 127.12 615.83 129.53 615.66 Z M 137.66 618.66 C 140.99 620.52 144.04 625.66 146.81 634.09 C 149.17 641.59 150.97 649.25 152.21 657.01 C 152.27 657.36 152.34 657.88 152.40 658.57 C 152.46 659.26 152.54 659.82 152.61 660.20 C 152.87 661.26 152.59 662.39 151.85 663.20 C 151.22 663.93 150.32 664.37 149.36 664.43 C 148.41 664.52 147.46 664.20 146.75 663.56 C 146.38 663.22 145.80 662.71 145.01 662.02 C 143.01 660.31 141.53 658.97 140.57 658.02 C 134.63 652.39 129.67 645.82 125.88 638.57 C 124.07 635.00 122.96 631.12 122.61 627.14 C 122.32 624.54 122.92 621.92 124.33 619.72 C 125.55 617.96 127.51 616.85 129.65 616.72 C 132.45 616.57 135.23 617.23 137.66 618.64 L 137.66 618.66 Z" fill="#3541df" fill-rule="evenodd" group-id="1,125" node-id="904" stroke="none" target-height="79.24481" target-width="62.386955" target-x="106.28001" target-y="596.86523"></path><path d="M 221.10 676.60 L 222.80 676.60 C 231.40 676.00 239.10 675.10 245.40 674.20 C 245.80 674.20 246.00 674.00 246.30 673.60 L 270.90 613.00 C 271.10 612.73 271.10 612.37 270.90 612.10 C 270.90 611.90 270.70 611.70 270.30 611.50 L 250.50 603.30 C 249.98 603.10 249.39 603.37 249.20 603.90 L 220.20 675.10 C 220.00 675.50 220.20 675.70 220.40 676.20 C 220.40 676.40 220.80 676.60 221.10 676.60 Z M 244.50 671.90 C 238.30 673.00 231.00 673.60 222.80 674.30 L 250.70 605.70 L 268.50 613.00 L 244.50 671.90 Z" fill="#ffffff" fill-rule="nonzero" group-id="1,126" node-id="909" stroke="none" target-height="73.500854" target-width="51.10005" target-x="219.99998" target-y="603.0991"></path><path d="M 256.10 589.70 L 250.10 604.30 L 269.90 612.50 L 275.90 598.10 C 277.86 592.46 274.72 586.32 269.00 584.60 C 264.03 582.62 258.38 584.86 256.10 589.70 Z" fill="#ffffff" fill-rule="nonzero" group-id="1,127" node-id="914" stroke="none" target-height="29.877869" target-width="27.759094" target-x="250.1" target-y="582.6222"></path><path d="M 270.10 613.40 C 270.55 613.41 270.97 613.18 271.20 612.80 L 277.20 598.40 C 278.50 595.54 278.50 592.26 277.20 589.40 C 276.03 586.48 273.72 584.17 270.80 583.00 C 267.94 581.70 264.66 581.70 261.80 583.00 C 258.80 584.05 256.45 586.40 255.40 589.40 L 249.40 603.80 C 249.20 604.07 249.20 604.43 249.40 604.70 C 249.60 604.90 249.60 605.10 250.00 605.30 L 270.00 613.70 C 269.90 613.40 269.90 613.40 270.10 613.40 Z M 266.00 584.10 C 269.88 584.13 273.36 586.50 274.80 590.10 C 275.90 592.41 275.90 595.09 274.80 597.40 L 269.20 610.90 L 251.40 603.60 L 257.00 590.10 C 257.90 587.70 259.80 585.80 262.20 584.90 C 263.40 584.39 264.69 584.12 266.00 584.10 Z" fill="#ffffff" fill-rule="nonzero" group-id="1,128" node-id="919" stroke="none" target-height="32.000366" target-width="29.300293" target-x="249.20001" target-y="581.6997"></path><path d="M 221.10 676.60 L 222.80 676.60 C 231.40 676.00 239.10 675.10 245.40 674.20 C 245.80 674.20 246.00 674.00 246.30 673.60 L 270.90 613.00 C 271.10 612.73 271.10 612.37 270.90 612.10 C 270.90 611.90 270.70 611.70 270.30 611.50 L 250.50 603.30 C 249.98 603.10 249.39 603.37 249.20 603.90 L 220.20 675.10 C 220.00 675.50 220.20 675.70 220.40 676.20 C 220.40 676.40 220.80 676.60 221.10 676.60 Z M 244.50 671.90 C 238.30 673.00 231.00 673.60 222.80 674.30 L 250.70 605.70 L 268.50 613.00 L 244.50 671.90 Z" fill="#6b6765" fill-rule="nonzero" group-id="1,129" node-id="924" stroke="none" target-height="73.500854" target-width="51.10005" target-x="219.99998" target-y="603.0991"></path><path d="M 256.10 589.70 L 250.10 604.30 L 269.90 612.50 L 275.90 598.10 C 277.86 592.46 274.72 586.32 269.00 584.60 C 264.03 582.62 258.38 584.86 256.10 589.70 Z" fill="#3541df" fill-rule="nonzero" group-id="1,130" node-id="929" stroke="none" target-height="29.877869" target-width="27.759094" target-x="250.1" target-y="582.6222"></path><path d="M 270.10 613.40 C 270.55 613.41 270.97 613.18 271.20 612.80 L 277.20 598.40 C 278.50 595.54 278.50 592.26 277.20 589.40 C 276.03 586.48 273.72 584.17 270.80 583.00 C 267.94 581.70 264.66 581.70 261.80 583.00 C 258.80 584.05 256.45 586.40 255.40 589.40 L 249.40 603.80 C 249.20 604.07 249.20 604.43 249.40 604.70 C 249.60 604.90 249.60 605.10 250.00 605.30 L 270.00 613.70 C 269.90 613.40 269.90 613.40 270.10 613.40 Z M 266.00 584.10 C 269.88 584.13 273.36 586.50 274.80 590.10 C 275.90 592.41 275.90 595.09 274.80 597.40 L 269.20 610.90 L 251.40 603.60 L 257.00 590.10 C 257.90 587.70 259.80 585.80 262.20 584.90 C 263.40 584.39 264.69 584.12 266.00 584.10 Z" fill="#6b6765" fill-rule="nonzero" group-id="1,131" node-id="934" stroke="none" target-height="32.000366" target-width="29.300293" target-x="249.20001" target-y="581.6997"></path><path d="M 244.50 671.90 L 268.60 612.80 L 250.80 605.50 L 222.90 674.10 C 230.14 673.82 237.35 673.09 244.50 671.90 Z" fill="#6b6765" fill-rule="nonzero" group-id="1,132" node-id="939" stroke="none" target-height="68.60004" target-width="45.69998" target-x="222.90002" target-y="605.50006"></path><path d="M 222.80 674.20 C 230.07 673.78 237.31 672.98 244.50 671.80 L 268.60 612.70 L 250.80 605.40 L 222.80 674.20 Z" fill="#ffffff" fill-rule="nonzero" group-id="1,133" node-id="944" stroke="none" target-height="68.79999" target-width="45.80002" target-x="222.79999" target-y="605.4"></path><path d="M 269.17 584.13 C 266.69 583.10 263.91 583.10 261.43 584.13 C 258.88 585.11 256.81 587.04 255.65 589.51 L 249.65 604.11 C 249.65 604.14 249.65 604.17 249.65 604.20 C 249.65 604.23 249.65 604.27 249.65 604.30 C 249.65 604.33 249.65 604.37 249.65 604.40 L 249.65 604.49 L 249.65 604.58 L 249.72 604.65 L 249.79 604.72 L 249.88 604.72 L 269.68 612.92 L 269.77 612.92 L 269.97 612.92 L 270.06 612.92 L 270.15 612.92 L 270.22 612.85 L 270.29 612.78 L 270.29 612.69 L 276.29 598.29 C 277.31 595.47 277.09 592.35 275.70 589.69 C 274.43 586.98 272.05 584.95 269.17 584.13 Z M 268.86 585.13 L 268.81 585.13 C 266.57 584.19 264.05 584.19 261.81 585.13 C 259.50 586.02 257.62 587.77 256.57 590.01 L 250.75 604.00 L 269.63 611.82 L 275.43 597.89 C 276.35 595.33 276.15 592.49 274.89 590.08 C 273.70 587.62 271.50 585.80 268.86 585.08 L 268.86 585.13 Z" fill="#3541df" fill-rule="evenodd" group-id="1,134" node-id="949" stroke="none" target-height="29.82013" target-width="27.661545" target-x="249.6451" target-y="583.1"></path><path d="M 270.10 613.40 C 270.55 613.41 270.97 613.18 271.20 612.80 L 277.20 598.40 C 278.50 595.54 278.50 592.26 277.20 589.40 C 276.03 586.48 273.72 584.17 270.80 583.00 C 267.94 581.70 264.66 581.70 261.80 583.00 C 258.80 584.05 256.45 586.40 255.40 589.40 L 249.40 603.80 C 249.20 604.07 249.20 604.43 249.40 604.70 C 249.60 604.90 249.60 605.10 250.00 605.30 L 270.00 613.70 C 269.90 613.40 269.90 613.40 270.10 613.40 Z M 266.00 584.10 C 269.88 584.13 273.36 586.50 274.80 590.10 C 275.90 592.41 275.90 595.09 274.80 597.40 L 269.20 610.90 L 251.40 603.60 L 257.00 590.10 C 257.90 587.70 259.80 585.80 262.20 584.90 C 263.40 584.39 264.69 584.12 266.00 584.10 Z" fill="#6b6765" fill-rule="nonzero" group-id="1,135" node-id="954" stroke="none" target-height="32.000366" target-width="29.300293" target-x="249.20001" target-y="581.6997"></path></g></g></svg>