<svg xmlns:xlink="http://www.w3.org/1999/xlink" xmlns="http://www.w3.org/2000/svg" data-v-a850baf3="" data-v-b95c7ff5="" aria-hidden="true" class="svg-icon icon-file-music" style="width: 28px; height: 28px;" width="1024" height="1024"><defs><symbol class="icon" viewBox="0 0 1024 1024" id="icon-file-music"><path d="M967.111 281.6v628.622c0 62.862-50.915 113.778-113.778 113.778H170.667c-62.863 0-113.778-50.916-113.778-113.778V113.778C56.889 50.916 107.804 0 170.667 0H685.51l281.6 281.6z" fill="#A15FDE"></path><path d="M685.511 196.267V0l281.6 281.6H770.844a85.333 85.333 0 0 1-85.333-85.333" fill="#C386F0"></path><path d="M669.98 426.268v237c0 26.254-31.857 47.587-71.082 47.587-39.254 0-70.742-21.333-70.742-47.587 0-26.283 31.517-47.588 70.742-47.588 14.848 0 28.729 3.1 40.163 8.334V458.098l-205.767 48.498v211.057c0 26.255-32.142 47.56-71.993 47.56-39.85 0-72.305-21.334-72.305-47.56 0-26.282 32.426-47.587 72.305-47.587a96.711 96.711 0 0 1 41.103 8.647V474.169c0-14.222 9.87-26.88 23.78-29.98l205.795-47.901a30.862 30.862 0 0 1 38.001 29.98" fill="#FFFFFF"></path></symbol></defs><g><path d="M967.111 281.6v628.622c0 62.862-50.915 113.778-113.778 113.778H170.667c-62.863 0-113.778-50.916-113.778-113.778V113.778C56.889 50.916 107.804 0 170.667 0H685.51l281.6 281.6z" fill="#A15FDE"></path><path d="M685.511 196.267V0l281.6 281.6H770.844a85.333 85.333 0 0 1-85.333-85.333" fill="#C386F0"></path><path d="M669.98 426.268v237c0 26.254-31.857 47.587-71.082 47.587-39.254 0-70.742-21.333-70.742-47.587 0-26.283 31.517-47.588 70.742-47.588 14.848 0 28.729 3.1 40.163 8.334V458.098l-205.767 48.498v211.057c0 26.255-32.142 47.56-71.993 47.56-39.85 0-72.305-21.334-72.305-47.56 0-26.282 32.426-47.587 72.305-47.587a96.711 96.711 0 0 1 41.103 8.647V474.169c0-14.222 9.87-26.88 23.78-29.98l205.795-47.901a30.862 30.862 0 0 1 38.001 29.98" fill="#FFFFFF"></path></g></svg>