<svg xmlns:xlink="http://www.w3.org/1999/xlink" xmlns="http://www.w3.org/2000/svg" data-v-a850baf3="" data-v-840b4794="" data-v-339d1cbb="" aria-hidden="true" class="svg-icon icon-file-ppt" style="width: 100%; height: 100%;" width="1024" height="1024"><defs><symbol class="icon" viewBox="0 0 1024 1024" id="icon-file-ppt"><path d="M967.111 281.6v628.622c0 62.578-51.2 113.778-113.778 113.778H170.667c-62.578 0-113.778-51.2-113.778-113.778V113.778C56.889 51.2 108.089 0 170.667 0H685.51l281.6 281.6z" fill="#F16C41"></path><path d="M685.511 224.711V0l281.6 281.6H742.4c-31.289 0-56.889-25.6-56.889-56.889" fill="#CD4B29"></path><path d="M525.88 648.135a88.32 88.32 0 0 1-68.75-32.995 87.04 87.04 0 0 1-19.626-55.382c0-21.049 7.253-40.249 19.627-55.381a88.235 88.235 0 0 1 68.75-32.996 88.49 88.49 0 0 1 88.377 88.377 88.52 88.52 0 0 1-88.377 88.377m0-235.69c-24.946 0-48.327 6.087-68.75 17.294a143.076 143.076 0 0 0-58.88 56.945v146.12a143.132 143.132 0 0 0 58.88 56.974c20.423 11.178 43.804 17.266 68.75 17.266a147.342 147.342 0 0 0 147.285-147.286 147.342 147.342 0 0 0-147.285-147.342" fill="#FFFFFF"></path><path d="M398.222 824.889h58.909V412.444h-58.909z" fill="#FFFFFF"></path></symbol></defs><g><path d="M967.111 281.6v628.622c0 62.578-51.2 113.778-113.778 113.778H170.667c-62.578 0-113.778-51.2-113.778-113.778V113.778C56.889 51.2 108.089 0 170.667 0H685.51l281.6 281.6z" fill="#F16C41"></path><path d="M685.511 224.711V0l281.6 281.6H742.4c-31.289 0-56.889-25.6-56.889-56.889" fill="#CD4B29"></path><path d="M525.88 648.135a88.32 88.32 0 0 1-68.75-32.995 87.04 87.04 0 0 1-19.626-55.382c0-21.049 7.253-40.249 19.627-55.381a88.235 88.235 0 0 1 68.75-32.996 88.49 88.49 0 0 1 88.377 88.377 88.52 88.52 0 0 1-88.377 88.377m0-235.69c-24.946 0-48.327 6.087-68.75 17.294a143.076 143.076 0 0 0-58.88 56.945v146.12a143.132 143.132 0 0 0 58.88 56.974c20.423 11.178 43.804 17.266 68.75 17.266a147.342 147.342 0 0 0 147.285-147.286 147.342 147.342 0 0 0-147.285-147.342" fill="#FFFFFF"></path><path d="M398.222 824.889h58.909V412.444h-58.909z" fill="#FFFFFF"></path></g></svg>