<svg t="1732264434912" class="icon" viewBox="0 0 1024 1024" version="1.1" xmlns="http://www.w3.org/2000/svg" p-id="37337" width="128" height="128"><path d="M619.486 921.312c-40.947 0-76.776 0-102.368 5.118-30.71-5.118-66.539-5.118-107.486-5.118-112.605 0-214.973 46.066-214.973 76.776s87.013 25.592 199.618 25.592c46.065 0 87.013-5.118 122.841-15.355 35.83 5.118 76.776 10.237 117.724 10.237 112.604 0 199.617 5.118 199.617-25.592s-102.368-71.658-214.973-71.658z" fill="#EFAB1B" p-id="37338"></path><path d="M906.117 609.09c-20.474-56.303-46.066-117.724-71.658-174.026v-40.947C834.46 174.026 721.854 0 512 0S189.54 174.026 189.54 394.117v40.947c-25.591 56.302-51.183 117.723-71.657 174.026-46.065 122.841-46.065 230.328-30.71 240.564 10.237 5.119 51.184-35.828 92.131-102.368C204.896 900.838 312.382 1023.68 512 1023.68s307.104-117.723 332.696-281.512c35.829 66.54 76.776 107.486 87.013 102.368 20.473-5.118 15.355-117.723-25.592-235.446z" fill="#040000" p-id="37339"></path><path d="M430.106 127.96c-30.71 0-56.303 35.829-56.303 81.894 0 46.066 25.592 81.895 56.303 81.895 30.71 0 56.302-35.829 56.302-81.895 0-46.065-25.592-81.894-56.302-81.894z m174.025 0c-30.71 0-56.302 35.829-56.302 76.776 0 46.066 25.592 81.894 56.302 81.894s56.303-35.828 56.303-76.776c0-46.065-25.592-81.894-56.303-81.894z m117.723 358.288c-61.42 10.237-133.078 15.355-204.736 15.355s-143.315-5.118-204.736-15.355c-40.947 51.184-46.065 127.96-46.065 209.854 0 153.552 87.013 281.512 250.801 281.512S767.92 849.654 767.92 696.102c0-81.894-5.118-158.67-46.066-209.854z" fill="#FFFFFF" p-id="37340"></path><path d="M517.118 317.34c-107.486 0-199.617 20.474-199.617 40.948 0 15.355 117.723 66.54 199.617 66.54s199.618-51.185 199.618-66.54c-5.118-20.474-92.131-40.947-199.618-40.947z" fill="#EFAB1B" p-id="37341"></path><path d="M829.34 429.946c-81.894 25.592-194.498 40.947-317.34 40.947-127.96 0-240.565-15.355-317.34-40.947-15.356 35.828-30.711 76.776-46.066 112.604 51.184 15.356 102.368 30.71 163.788 40.948V731.93s40.948 10.237 81.895 10.237c30.71 0 56.302-5.118 56.302-5.118V598.853H512c138.197 0 266.157-20.474 368.525-51.184-15.355-40.947-30.71-76.776-51.184-117.723z" fill="#DB2920" p-id="37342"></path><path d="M450.58 184.262c-15.356 0-25.593 15.356-25.593 30.71s10.237 30.711 25.592 30.711 25.592-15.355 25.592-30.71c-5.118-15.355-15.355-30.71-25.592-30.71z m179.143 20.474s-10.237-10.237-35.829-10.237c-25.592 5.119-35.828 15.355-35.828 20.474 0 0-5.119 10.237 0 15.355 5.118 5.118 10.236-5.118 10.236-5.118s10.237-15.356 25.592-15.356 25.592 5.119 25.592 5.119 5.119 5.118 10.237 0 0-10.237 0-10.237z" fill="#040000" p-id="37343"></path></svg>