<svg xmlns:xlink="http://www.w3.org/1999/xlink" xmlns="http://www.w3.org/2000/svg" data-v-a850baf3="" data-v-840b4794="" data-v-339d1cbb="" aria-hidden="true" class="svg-icon icon-file-rar" style="width: 100%; height: 100%;" width="1024" height="1024"><defs><symbol class="icon" viewBox="0 0 1024 1024" id="icon-file-rar"><path d="M967.111 281.6v628.622c0 62.862-50.915 113.778-113.778 113.778H170.667c-62.863 0-113.778-50.916-113.778-113.778V113.778C56.889 50.916 107.804 0 170.667 0H685.51l281.6 281.6z" fill="#FFC63A"></path><path d="M685.511 167.822V0l281.6 281.6H799.29c-62.862 0-113.778-50.916-113.778-113.778" fill="#DD9F08"></path><path d="M436.565 68.437h68.438V0h-68.438zm68.438 68.438h68.437V68.437h-68.437zm-68.438 68.437h68.438v-68.437h-68.438zm68.438 68.437h68.437v-68.437h-68.437z" fill="#FFFFFF"></path><path d="M436.565 342.158h68.438v-68.437h-68.438zm68.438 68.466h68.437v-68.437h-68.437z" fill="#FFFFFF"></path><path d="M436.565 479.033h68.438v-68.437h-68.438zm68.438 68.437h68.437v-68.437h-68.437zm-34.219 214.756h68.437v-68.438h-68.437v68.438zM436.565 625.35v136.875c0 18.915 15.332 34.218 34.219 34.218h68.437c18.916 0 34.219-15.303 34.219-34.218V625.35H436.565z" fill="#FFFFFF"></path></symbol></defs><g><path d="M967.111 281.6v628.622c0 62.862-50.915 113.778-113.778 113.778H170.667c-62.863 0-113.778-50.916-113.778-113.778V113.778C56.889 50.916 107.804 0 170.667 0H685.51l281.6 281.6z" fill="#FFC63A"></path><path d="M685.511 167.822V0l281.6 281.6H799.29c-62.862 0-113.778-50.916-113.778-113.778" fill="#DD9F08"></path><path d="M436.565 68.437h68.438V0h-68.438zm68.438 68.438h68.437V68.437h-68.437zm-68.438 68.437h68.438v-68.437h-68.438zm68.438 68.437h68.437v-68.437h-68.437z" fill="#FFFFFF"></path><path d="M436.565 342.158h68.438v-68.437h-68.438zm68.438 68.466h68.437v-68.437h-68.437z" fill="#FFFFFF"></path><path d="M436.565 479.033h68.438v-68.437h-68.438zm68.438 68.437h68.437v-68.437h-68.437zm-34.219 214.756h68.437v-68.438h-68.437v68.438zM436.565 625.35v136.875c0 18.915 15.332 34.218 34.219 34.218h68.437c18.916 0 34.219-15.303 34.219-34.218V625.35H436.565z" fill="#FFFFFF"></path></g></svg>