<svg xmlns:xlink="http://www.w3.org/1999/xlink" class="icon_ec6b19" aria-hidden="true" role="img" xmlns="http://www.w3.org/2000/svg" width="18" height="18" fill="none" viewBox="0 0 24 24"><path fill="oklab(0.787067 -0.00258079 -0.0110391)" fill-rule="evenodd" d="M12 23a11 11 0 1 0 0-22 11 11 0 0 0 0 22ZM6.5 13a1.5 1.5 0 1 0 0-3 1.5 1.5 0 0 0 0 3Zm11 0a1.5 1.5 0 1 0 0-3 1.5 1.5 0 0 0 0 3Zm-9.8 1.17a1 1 0 0 1 1.39.27 3.5 3.5 0 0 0 5.82 0 1 1 0 0 1 1.66 1.12 5.5 5.5 0 0 1-9.14 0 1 1 0 0 1 .27-1.4Z" clip-rule="evenodd" class=""></path></svg>