<svg xmlns:xlink="http://www.w3.org/1999/xlink" xmlns="http://www.w3.org/2000/svg" data-v-a850baf3="" data-v-b95c7ff5="" aria-hidden="true" class="svg-icon icon-file-txt" style="width: 28px; height: 28px;" width="1024" height="1024"><defs><symbol class="icon" viewBox="0 0 1024 1024" id="icon-file-txt"><path d="M967.111 281.6v628.622c0 62.862-50.915 113.778-113.778 113.778H170.667c-62.863 0-113.778-50.916-113.778-113.778V113.778C56.889 50.916 107.804 0 170.667 0H685.51l281.6 281.6z" fill="#6D9FE5"></path><path d="M685.511 167.822V0l281.6 281.6H799.29c-62.862 0-113.778-50.916-113.778-113.778" fill="#4B80CB"></path><path d="M344.178 485.575h312.889v-58.908h-312.89zM471.154 770.02h58.908V485.575h-58.908z" fill="#FFFFFF"></path></symbol></defs><g><path d="M967.111 281.6v628.622c0 62.862-50.915 113.778-113.778 113.778H170.667c-62.863 0-113.778-50.916-113.778-113.778V113.778C56.889 50.916 107.804 0 170.667 0H685.51l281.6 281.6z" fill="#6D9FE5"></path><path d="M685.511 167.822V0l281.6 281.6H799.29c-62.862 0-113.778-50.916-113.778-113.778" fill="#4B80CB"></path><path d="M344.178 485.575h312.889v-58.908h-312.89zM471.154 770.02h58.908V485.575h-58.908z" fill="#FFFFFF"></path></g></svg>