<svg xmlns:xlink="http://www.w3.org/1999/xlink" xmlns="http://www.w3.org/2000/svg" data-v-a850baf3="" data-v-b95c7ff5="" aria-hidden="true" class="svg-icon icon-file-other" style="width: 28px; height: 28px;" width="1024" height="1024"><defs><symbol class="icon" viewBox="0 0 1024 1024" id="icon-file-other"><path d="M967.111 281.6v628.622c0 62.862-50.915 113.778-113.778 113.778H170.667c-62.863 0-113.778-50.916-113.778-113.778V113.778C56.889 50.916 107.804 0 170.667 0H685.51l281.6 281.6z" fill="#BABABA"></path><path d="M685.511 167.822V0l281.6 281.6H799.29c-62.862 0-113.778-50.916-113.778-113.778" fill="#979797"></path><path d="M733.668 632.69a111.104 111.104 0 0 1-110.82 110.82H401.18a111.132 111.132 0 0 1-110.848-110.82 111.047 111.047 0 0 1 99.755-110.28A122.197 122.197 0 0 1 512 407.695a122.197 122.197 0 0 1 121.913 114.717 111.16 111.16 0 0 1 99.755 110.279" fill="#FFFFFF"></path></symbol></defs><g><path d="M967.111 281.6v628.622c0 62.862-50.915 113.778-113.778 113.778H170.667c-62.863 0-113.778-50.916-113.778-113.778V113.778C56.889 50.916 107.804 0 170.667 0H685.51l281.6 281.6z" fill="#BABABA"></path><path d="M685.511 167.822V0l281.6 281.6H799.29c-62.862 0-113.778-50.916-113.778-113.778" fill="#979797"></path><path d="M733.668 632.69a111.104 111.104 0 0 1-110.82 110.82H401.18a111.132 111.132 0 0 1-110.848-110.82 111.047 111.047 0 0 1 99.755-110.28A122.197 122.197 0 0 1 512 407.695a122.197 122.197 0 0 1 121.913 114.717 111.16 111.16 0 0 1 99.755 110.279" fill="#FFFFFF"></path></g></svg>