<svg xmlns:xlink="http://www.w3.org/1999/xlink" xmlns="http://www.w3.org/2000/svg" data-v-a850baf3="" data-v-b95c7ff5="" aria-hidden="true" class="svg-icon icon-file-video" style="width: 28px; height: 28px;" width="1024" height="1024"><defs><symbol class="icon" viewBox="0 0 1024 1024" id="icon-file-video"><path d="M967.111 281.6v628.622c0 62.862-50.915 113.778-113.778 113.778H170.667c-62.863 0-113.778-50.916-113.778-113.778V113.778C56.889 50.916 107.804 0 170.667 0H685.51l281.6 281.6z" fill="#C386F0"></path><path d="M327.111 398.222h298.667q42.666 0 42.666 42.667v234.667q0 42.666-42.666 42.666H327.11q-42.667 0-42.667-42.666V440.889q0-42.667 42.667-42.667ZM738.418 457.842a31.972 31.972 0 0 1 48.014 27.676v154.539c0 24.633-26.652 40.021-47.986 27.705l-54.016-31.175V488.96z" fill="#FFFFFF"></path><path d="M685.511 167.822V0l281.6 281.6H799.29c-62.862 0-113.778-50.916-113.778-113.778" fill="#A15FDE"></path></symbol></defs><g><path d="M967.111 281.6v628.622c0 62.862-50.915 113.778-113.778 113.778H170.667c-62.863 0-113.778-50.916-113.778-113.778V113.778C56.889 50.916 107.804 0 170.667 0H685.51l281.6 281.6z" fill="#C386F0"></path><path d="M327.111 398.222h298.667q42.666 0 42.666 42.667v234.667q0 42.666-42.666 42.666H327.11q-42.667 0-42.667-42.666V440.889q0-42.667 42.667-42.667ZM738.418 457.842a31.972 31.972 0 0 1 48.014 27.676v154.539c0 24.633-26.652 40.021-47.986 27.705l-54.016-31.175V488.96z" fill="#FFFFFF"></path><path d="M685.511 167.822V0l281.6 281.6H799.29c-62.862 0-113.778-50.916-113.778-113.778" fill="#A15FDE"></path></g></svg>