<svg xmlns:xlink="http://www.w3.org/1999/xlink" xmlns="http://www.w3.org/2000/svg" data-v-a850baf3="" data-v-840b4794="" data-v-339d1cbb="" aria-hidden="true" class="svg-icon icon-file-excel" style="width: 100%; height: 100%;" width="1024" height="1024"><defs><symbol class="icon" viewBox="0 0 1024 1024" id="icon-file-excel"><path d="M967.111 281.6v628.622c0 62.578-51.2 113.778-113.778 113.778H170.667c-62.578 0-113.778-51.2-113.778-113.778V113.778C56.889 51.2 108.089 0 170.667 0H685.51l281.6 281.6z" fill="#62C558"></path><path d="M685.511 224.711V0l281.6 281.6H742.4c-31.289 0-56.889-25.6-56.889-56.889" fill="#2A8121"></path><path d="M682.667 724.025 638.692 768 341.333 470.67l43.975-44.003zm-228.58-112.896 44.089 44.089L385.422 768l-44.089-44.089zm228.58-140.373L569.6 583.822l-44.089-44.089 113.067-113.066z" fill="#FFFFFF"></path></symbol></defs><g><path d="M967.111 281.6v628.622c0 62.578-51.2 113.778-113.778 113.778H170.667c-62.578 0-113.778-51.2-113.778-113.778V113.778C56.889 51.2 108.089 0 170.667 0H685.51l281.6 281.6z" fill="#62C558"></path><path d="M685.511 224.711V0l281.6 281.6H742.4c-31.289 0-56.889-25.6-56.889-56.889" fill="#2A8121"></path><path d="M682.667 724.025 638.692 768 341.333 470.67l43.975-44.003zm-228.58-112.896 44.089 44.089L385.422 768l-44.089-44.089zm228.58-140.373L569.6 583.822l-44.089-44.089 113.067-113.066z" fill="#FFFFFF"></path></g></svg>